{
  "source": "C:\\Users\\Peter\\Desktop\\stuff\\MIUN\\quantitative_research\\video_compression\\videos\\BVI-HD\\PlasmaSlowRandom_1920x1080_60fps.mp4",
  "output": "C:\\Users\\Peter\\Desktop\\stuff\\MIUN\\quantitative_research\\video_compression\\compressed_videos\\BVI-HD\\hevc\\12\\PlasmaSlowRandom_1920x1080_60fps_hevc.mp4",
  "codec": "hevc",
  "ok": "Input #0, mov,mp4,m4a,3gp,3g2,mj2, from 'C:\\Users\\Peter\\Desktop\\stuff\\MIUN\\quantitative_research\\video_compression\\videos\\BVI-HD\\PlasmaSlowRandom_1920x1080_60fps.mp4':\n  Metadata:\n    major_brand     : isom\n    minor_version   : 512\n    compatible_brands: isomiso2avc1mp41\n    encoder         : Lavf54.28.101\n  Duration: 00:00:05.00, start: 0.000000, bitrate: 23030 kb/s\n  Stream #0:0[0x1](und): Video: h264 (High 4:4:4 Predictive) (avc1 / 0x31637661), yuv420p(progressive), 1920x1080, 23026 kb/s, 60 fps, 60 tbr, 60 tbn (default)\n    Metadata:\n      handler_name    : VideoHandler\n      vendor_id       : [0][0][0][0]\n[out#0/mp4 @ 0000020358b64d00] Codec AVOption b:a (set bitrate (in bits/s)) has not been used for any stream. The most likely reason is either wrong type (e.g. a video option with no video streams) or that it is a private option of some decoder which was not actually used for any stream.\nStream mapping:\n  Stream #0:0 -> #0:0 (h264 (native) -> hevc (libx265))\nPress [q] to stop, [?] for help\n[libx265 @ 0000020358c6d200] Unknown option: \"aq-mode.\nx265 [info]: HEVC encoder version 4.1+190-8f11c33ac\nx265 [info]: build info [Windows][GCC 15.1.0][64 bit] 10bit\nx265 [info]: using cpu capabilities: MMX2 SSE2Fast LZCNT SSSE3 SSE4.2 AVX FMA3 BMI2 AVX2\nx265 [info]: Main 10 profile, Level-4.1 (Main tier)\nx265 [info]: Thread pool created using 12 threads\nx265 [info]: Slices                              : 1\nx265 [info]: frame threads / pool features       : 3 / wpp(17 rows)\nx265 [info]: Coding QT: max CU size, min CU size : 64 / 8\nx265 [info]: Residual QT: max TU size, max depth : 32 / 1 inter / 1 intra\nx265 [info]: ME / range / subpel / merge         : star / 57 / 3 / 3\nx265 [info]: Keyframe min / max / scenecut / bias  : 25 / 250 / 40 / 5.00 \nx265 [info]: Lookahead / bframes / badapt        : 25 / 4 / 2\nx265 [info]: b-pyramid / weightp / weightb       : 1 / 1 / 0\nx265 [info]: References / ref-limit  cu / depth  : 4 / on / on\nx265 [info]: AQ: mode / str / qg-size / cu-tree  : 2 / 1.0 / 32 / 1\nx265 [info]: Rate Control / qCompress            : ABR-12000 kbps / 0.60\nx265 [info]: VBV/HRD buffer / max-rate / init    : 12000 / 12000 / 0.750\nx265 [info]: tools: rect limit-modes rd=4 psy-rd=2.00 rdoq=2 psy-rdoq=1.00\nx265 [info]: tools: rskip mode=1 signhide tmvp strong-intra-smoothing lslices=4\nx265 [info]: tools: deblock sao dhdr10-info\nOutput #0, mp4, to 'C:\\Users\\Peter\\Desktop\\stuff\\MIUN\\quantitative_research\\video_compression\\compressed_videos\\BVI-HD\\hevc\\12\\PlasmaSlowRandom_1920x1080_60fps_hevc.mp4':\n  Metadata:\n    major_brand     : isom\n    minor_version   : 512\n    compatible_brands: isomiso2avc1mp41\n    encoder         : Lavf62.3.100\n  Stream #0:0(und): Video: hevc (hev1 / 0x31766568), yuv420p10le(tv, progressive), 1920x1080, q=2-31, 12000 kb/s, 60 fps, 15360 tbn (default)\n    Metadata:\n      encoder         : Lavc62.11.100 libx265\n      handler_name    : VideoHandler\n      vendor_id       : [0][0][0][0]\n    Side data:\n      cpb: bitrate max/min/avg: 12000000/0/12000000 buffer size: 12000000 vbv_delay: N/A\nframe=    0 fps=0.0 q=0.0 size=       0KiB time=N/A bitrate=N/A speed=N/A elapsed=0:00:00.52    \nframe=    0 fps=0.0 q=0.0 size=       0KiB time=N/A bitrate=N/A speed=N/A elapsed=0:00:01.06    \nframe=    0 fps=0.0 q=0.0 size=       0KiB time=N/A bitrate=N/A speed=N/A elapsed=0:00:01.62    \nframe=    0 fps=0.0 q=0.0 size=       0KiB time=N/A bitrate=N/A speed=N/A elapsed=0:00:02.16    \nframe=    0 fps=0.0 q=0.0 size=       0KiB time=N/A bitrate=N/A speed=N/A elapsed=0:00:02.69    \nframe=    0 fps=0.0 q=0.0 size=       0KiB time=N/A bitrate=N/A speed=N/A elapsed=0:00:03.24    \nframe=    0 fps=0.0 q=0.0 size=       0KiB time=N/A bitrate=N/A speed=N/A elapsed=0:00:03.81    \nframe=    0 fps=0.0 q=0.0 size=       0KiB time=N/A bitrate=N/A speed=N/A elapsed=0:00:04.34    \nframe=    0 fps=0.0 q=0.0 size=       0KiB time=N/A bitrate=N/A speed=N/A elapsed=0:00:04.90    \nframe=    0 fps=0.0 q=0.0 size=       0KiB time=N/A bitrate=N/A speed=N/A elapsed=0:00:05.41    \nframe=    0 fps=0.0 q=0.0 size=       0KiB time=N/A bitrate=N/A speed=N/A elapsed=0:00:05.93    \nframe=    0 fps=0.0 q=0.0 size=       0KiB time=N/A bitrate=N/A speed=N/A elapsed=0:00:06.49    \nframe=    0 fps=0.0 q=0.0 size=       0KiB time=N/A bitrate=N/A speed=N/A elapsed=0:00:07.06    \nframe=    0 fps=0.0 q=0.0 size=       0KiB time=N/A bitrate=N/A speed=N/A elapsed=0:00:07.57    \nframe=    0 fps=0.0 q=0.0 size=       0KiB time=N/A bitrate=N/A speed=N/A elapsed=0:00:08.13    \nframe=    0 fps=0.0 q=0.0 size=       0KiB time=N/A bitrate=N/A speed=N/A elapsed=0:00:08.66    \nframe=    0 fps=0.0 q=0.0 size=       0KiB time=N/A bitrate=N/A speed=N/A elapsed=0:00:09.19    \nframe=    0 fps=0.0 q=0.0 size=       0KiB time=N/A bitrate=N/A speed=N/A elapsed=0:00:09.74    \nframe=    0 fps=0.0 q=0.0 size=       0KiB time=N/A bitrate=N/A speed=N/A elapsed=0:00:10.29    \nframe=    1 fps=0.1 q=25.7 size=       0KiB time=-00:00:00.01 bitrate=N/A speed=N/A elapsed=0:00:10.81    \nframe=    2 fps=0.2 q=27.9 size=       0KiB time=00:00:00.00 bitrate=N/A speed=   0x elapsed=0:00:11.32    \nframe=    2 fps=0.2 q=27.9 size=       0KiB time=00:00:00.00 bitrate=N/A speed=   0x elapsed=0:00:11.86    \nframe=    3 fps=0.2 q=23.8 size=       0KiB time=00:00:00.01 bitrate=  21.1kbits/s speed=0.00134x elapsed=0:00:12.41    \nframe=    3 fps=0.2 q=23.8 size=       0KiB time=00:00:00.01 bitrate=  21.1kbits/s speed=0.00129x elapsed=0:00:12.94    \nframe=    3 fps=0.2 q=23.8 size=       0KiB time=00:00:00.01 bitrate=  21.1kbits/s speed=0.00124x elapsed=0:00:13.46    \nframe=    4 fps=0.3 q=23.9 size=       0KiB time=00:00:00.03 bitrate=  10.6kbits/s speed=0.00238x elapsed=0:00:13.98    \nframe=    4 fps=0.3 q=23.9 size=       0KiB time=00:00:00.03 bitrate=  10.6kbits/s speed=0.00229x elapsed=0:00:14.53    \nframe=    4 fps=0.3 q=23.9 size=       0KiB time=00:00:00.03 bitrate=  10.6kbits/s speed=0.00221x elapsed=0:00:15.11    \nframe=    4 fps=0.3 q=23.9 size=       0KiB time=00:00:00.03 bitrate=  10.6kbits/s speed=0.00212x elapsed=0:00:15.69    \nframe=    5 fps=0.3 q=24.4 size=       0KiB time=00:00:00.05 bitrate=   7.0kbits/s speed=0.00308x elapsed=0:00:16.23    \nframe=    5 fps=0.3 q=24.4 size=       0KiB time=00:00:00.05 bitrate=   7.0kbits/s speed=0.00297x elapsed=0:00:16.83    \nframe=    5 fps=0.3 q=24.4 size=       0KiB time=00:00:00.05 bitrate=   7.0kbits/s speed=0.00286x elapsed=0:00:17.50    \nframe=    5 fps=0.3 q=24.4 size=       0KiB time=00:00:00.05 bitrate=   7.0kbits/s speed=0.00276x elapsed=0:00:18.12    \nframe=    5 fps=0.3 q=24.4 size=       0KiB time=00:00:00.05 bitrate=   7.0kbits/s speed=0.00266x elapsed=0:00:18.76    \nframe=    5 fps=0.3 q=24.4 size=       0KiB time=00:00:00.05 bitrate=   7.0kbits/s speed=0.00258x elapsed=0:00:19.35    \nframe=    5 fps=0.3 q=24.4 size=       0KiB time=00:00:00.05 bitrate=   7.0kbits/s speed=0.00251x elapsed=0:00:19.88    \nframe=    5 fps=0.2 q=24.4 size=       0KiB time=00:00:00.05 bitrate=   7.0kbits/s speed=0.00245x elapsed=0:00:20.43    \nframe=    5 fps=0.2 q=24.4 size=       0KiB time=00:00:00.05 bitrate=   7.0kbits/s speed=0.00238x elapsed=0:00:21.01    \nframe=    5 fps=0.2 q=24.4 size=       0KiB time=00:00:00.05 bitrate=   7.0kbits/s speed=0.00232x elapsed=0:00:21.58    \nframe=    5 fps=0.2 q=24.4 size=       0KiB time=00:00:00.05 bitrate=   7.0kbits/s speed=0.00226x elapsed=0:00:22.15    \nframe=    5 fps=0.2 q=24.4 size=       0KiB time=00:00:00.05 bitrate=   7.0kbits/s speed=0.0022x elapsed=0:00:22.68    \nframe=    5 fps=0.2 q=24.4 size=       0KiB time=00:00:00.05 bitrate=   7.0kbits/s speed=0.00215x elapsed=0:00:23.21    \nframe=    6 fps=0.3 q=23.3 size=       0KiB time=00:00:00.06 bitrate=   5.3kbits/s speed=0.0028x elapsed=0:00:23.77    \nframe=    7 fps=0.3 q=21.8 size=       0KiB time=00:00:00.08 bitrate=   4.2kbits/s speed=0.00343x elapsed=0:00:24.28    \nframe=    8 fps=0.3 q=21.4 size=       0KiB time=00:00:00.10 bitrate=   3.5kbits/s speed=0.00403x elapsed=0:00:24.80    \nframe=    8 fps=0.3 q=21.4 size=       0KiB time=00:00:00.10 bitrate=   3.5kbits/s speed=0.00395x elapsed=0:00:25.32    \nframe=    8 fps=0.3 q=21.4 size=       0KiB time=00:00:00.10 bitrate=   3.5kbits/s speed=0.00386x elapsed=0:00:25.87    \nframe=    9 fps=0.3 q=20.5 size=       0KiB time=00:00:00.11 bitrate=   3.0kbits/s speed=0.00441x elapsed=0:00:26.44    \nframe=   10 fps=0.4 q=17.9 size=       0KiB time=00:00:00.13 bitrate=   2.6kbits/s speed=0.00495x elapsed=0:00:26.94    \nframe=   11 fps=0.4 q=16.9 size=       0KiB time=00:00:00.13 bitrate=   2.6kbits/s speed=0.00485x elapsed=0:00:27.48    \nframe=   11 fps=0.4 q=16.9 size=       0KiB time=00:00:00.15 bitrate=   2.3kbits/s speed=0.00534x elapsed=0:00:28.08    \nframe=   11 fps=0.4 q=16.9 size=       0KiB time=00:00:00.15 bitrate=   2.3kbits/s speed=0.00524x elapsed=0:00:28.62    \nframe=   11 fps=0.4 q=16.9 size=       0KiB time=00:00:00.15 bitrate=   2.3kbits/s speed=0.00515x elapsed=0:00:29.14    \nframe=   12 fps=0.4 q=15.2 size=       0KiB time=00:00:00.16 bitrate=   2.1kbits/s speed=0.00562x elapsed=0:00:29.65    \nframe=   13 fps=0.4 q=13.2 size=       0KiB time=00:00:00.18 bitrate=   1.9kbits/s speed=0.00607x elapsed=0:00:30.22    \nframe=   14 fps=0.5 q=14.7 size=       0KiB time=00:00:00.20 bitrate=   1.8kbits/s speed=0.00651x elapsed=0:00:30.74    \nframe=   15 fps=0.5 q=14.7 size=       0KiB time=00:00:00.21 bitrate=   1.6kbits/s speed=0.00693x elapsed=0:00:31.25    \nframe=   15 fps=0.5 q=14.7 size=       0KiB time=00:00:00.21 bitrate=   1.6kbits/s speed=0.00681x elapsed=0:00:31.82    \nframe=   15 fps=0.5 q=14.7 size=       0KiB time=00:00:00.21 bitrate=   1.6kbits/s speed=0.00669x elapsed=0:00:32.37    \nframe=   16 fps=0.5 q=13.4 size=       0KiB time=00:00:00.23 bitrate=   1.5kbits/s speed=0.00709x elapsed=0:00:32.89    \nframe=   16 fps=0.5 q=13.4 size=       0KiB time=00:00:00.23 bitrate=   1.5kbits/s speed=0.00698x elapsed=0:00:33.41    \nframe=   16 fps=0.5 q=13.4 size=       0KiB time=00:00:00.23 bitrate=   1.5kbits/s speed=0.00687x elapsed=0:00:33.94    \nframe=   17 fps=0.5 q=11.3 size=       0KiB time=00:00:00.25 bitrate=   1.4kbits/s speed=0.00726x elapsed=0:00:34.45    \nframe=   17 fps=0.5 q=11.3 size=       0KiB time=00:00:00.25 bitrate=   1.4kbits/s speed=0.00715x elapsed=0:00:34.96    \nframe=   18 fps=0.5 q=12.8 size=       0KiB time=00:00:00.26 bitrate=   1.3kbits/s speed=0.00751x elapsed=0:00:35.50    \nframe=   18 fps=0.5 q=12.8 size=       0KiB time=00:00:00.26 bitrate=   1.3kbits/s speed=0.0074x elapsed=0:00:36.05    \nframe=   19 fps=0.5 q=12.5 size=       0KiB time=00:00:00.28 bitrate=   1.2kbits/s speed=0.00774x elapsed=0:00:36.59    \nframe=   19 fps=0.5 q=12.5 size=       0KiB time=00:00:00.28 bitrate=   1.2kbits/s speed=0.00763x elapsed=0:00:37.13    \nframe=   20 fps=0.5 q=12.0 size=       0KiB time=00:00:00.30 bitrate=   1.2kbits/s speed=0.00796x elapsed=0:00:37.66    \nframe=   20 fps=0.5 q=12.0 size=       0KiB time=00:00:00.30 bitrate=   1.2kbits/s speed=0.00785x elapsed=0:00:38.19    \nframe=   21 fps=0.5 q=9.0 size=       0KiB time=00:00:00.31 bitrate=   1.1kbits/s speed=0.00818x elapsed=0:00:38.72    \nframe=   22 fps=0.6 q=11.2 size=     256KiB time=00:00:00.33 bitrate=6292.5kbits/s speed=0.00849x elapsed=0:00:39.24    \nframe=   22 fps=0.6 q=11.2 size=     256KiB time=00:00:00.33 bitrate=6292.5kbits/s speed=0.00838x elapsed=0:00:39.77    \nframe=   23 fps=0.6 q=11.2 size=     256KiB time=00:00:00.35 bitrate=5992.9kbits/s speed=0.00869x elapsed=0:00:40.29    \nframe=   24 fps=0.6 q=10.0 size=     256KiB time=00:00:00.36 bitrate=5720.5kbits/s speed=0.00898x elapsed=0:00:40.81    \nframe=   24 fps=0.6 q=10.0 size=     256KiB time=00:00:00.36 bitrate=5720.5kbits/s speed=0.00887x elapsed=0:00:41.33    \nframe=   26 fps=0.6 q=7.0 size=     256KiB time=00:00:00.40 bitrate=5243.8kbits/s speed=0.00955x elapsed=0:00:41.86    \nframe=   26 fps=0.6 q=7.0 size=     256KiB time=00:00:00.40 bitrate=5243.8kbits/s speed=0.00943x elapsed=0:00:42.41    \nframe=   27 fps=0.6 q=9.4 size=     256KiB time=00:00:00.41 bitrate=5034.0kbits/s speed=0.0097x elapsed=0:00:42.96    \nframe=   27 fps=0.6 q=9.4 size=     256KiB time=00:00:00.41 bitrate=5034.0kbits/s speed=0.00958x elapsed=0:00:43.49    \nframe=   29 fps=0.7 q=9.1 size=     256KiB time=00:00:00.43 bitrate=4840.4kbits/s speed=0.00984x elapsed=0:00:44.03    \nframe=   29 fps=0.7 q=9.1 size=     256KiB time=00:00:00.45 bitrate=4661.1kbits/s speed=0.0101x elapsed=0:00:44.60    \nframe=   29 fps=0.6 q=9.1 size=     256KiB time=00:00:00.45 bitrate=4661.1kbits/s speed=0.00997x elapsed=0:00:45.15    \nframe=   29 fps=0.6 q=9.1 size=     256KiB time=00:00:00.45 bitrate=4661.1kbits/s speed=0.00984x elapsed=0:00:45.71    \nframe=   30 fps=0.6 q=9.1 size=     256KiB time=00:00:00.46 bitrate=4494.6kbits/s speed=0.0101x elapsed=0:00:46.25    \nframe=   31 fps=0.7 q=9.1 size=     256KiB time=00:00:00.48 bitrate=4339.7kbits/s speed=0.0103x elapsed=0:00:46.79    \nframe=   32 fps=0.7 q=8.5 size=     512KiB time=00:00:00.50 bitrate=8389.3kbits/s speed=0.0106x elapsed=0:00:47.33    \nframe=   32 fps=0.7 q=8.5 size=     512KiB time=00:00:00.50 bitrate=8389.3kbits/s speed=0.0104x elapsed=0:00:47.89    \nframe=   32 fps=0.7 q=8.5 size=     512KiB time=00:00:00.50 bitrate=8389.3kbits/s speed=0.0103x elapsed=0:00:48.43    \nframe=   32 fps=0.7 q=8.5 size=     512KiB time=00:00:00.50 bitrate=8389.3kbits/s speed=0.0102x elapsed=0:00:48.94    \nframe=   32 fps=0.6 q=8.5 size=     512KiB time=00:00:00.50 bitrate=8389.3kbits/s speed=0.0101x elapsed=0:00:49.50    \nframe=   33 fps=0.7 q=6.1 size=     512KiB time=00:00:00.51 bitrate=8118.7kbits/s speed=0.0103x elapsed=0:00:50.02    \nframe=   33 fps=0.7 q=6.1 size=     512KiB time=00:00:00.51 bitrate=8118.7kbits/s speed=0.0102x elapsed=0:00:50.57    \nframe=   34 fps=0.7 q=8.1 size=     512KiB time=00:00:00.53 bitrate=7865.0kbits/s speed=0.0104x elapsed=0:00:51.13    \nframe=   35 fps=0.7 q=9.1 size=     512KiB time=00:00:00.55 bitrate=7626.6kbits/s speed=0.0106x elapsed=0:00:51.65    \nframe=   35 fps=0.7 q=9.1 size=     512KiB time=00:00:00.55 bitrate=7626.6kbits/s speed=0.0105x elapsed=0:00:52.17    \nframe=   35 fps=0.7 q=9.1 size=     512KiB time=00:00:00.55 bitrate=7626.6kbits/s speed=0.0104x elapsed=0:00:52.72    \nframe=   36 fps=0.7 q=8.3 size=     512KiB time=00:00:00.56 bitrate=7402.3kbits/s speed=0.0106x elapsed=0:00:53.25    \nframe=   37 fps=0.7 q=6.2 size=     512KiB time=00:00:00.58 bitrate=7190.8kbits/s speed=0.0108x elapsed=0:00:53.77    \nframe=   40 fps=0.7 q=7.2 size=     512KiB time=00:00:00.61 bitrate=6802.1kbits/s speed=0.0114x elapsed=0:00:54.32    \nframe=   41 fps=0.7 q=9.3 size=     768KiB time=00:00:00.65 bitrate=9679.7kbits/s speed=0.0118x elapsed=0:00:54.85    \nframe=   41 fps=0.7 q=9.3 size=     768KiB time=00:00:00.65 bitrate=9679.7kbits/s speed=0.0117x elapsed=0:00:55.39    \nframe=   41 fps=0.7 q=9.3 size=     768KiB time=00:00:00.65 bitrate=9679.7kbits/s speed=0.0116x elapsed=0:00:55.97    \nframe=   41 fps=0.7 q=9.3 size=     768KiB time=00:00:00.65 bitrate=9679.7kbits/s speed=0.0115x elapsed=0:00:56.60    \nframe=   41 fps=0.7 q=9.3 size=     768KiB time=00:00:00.65 bitrate=9679.7kbits/s speed=0.0114x elapsed=0:00:57.17    \nframe=   41 fps=0.7 q=9.3 size=     768KiB time=00:00:00.65 bitrate=9679.7kbits/s speed=0.0112x elapsed=0:00:57.79    \nframe=   42 fps=0.7 q=8.4 size=     768KiB time=00:00:00.66 bitrate=9437.7kbits/s speed=0.0114x elapsed=0:00:58.33    \nframe=   43 fps=0.7 q=8.4 size=     768KiB time=00:00:00.68 bitrate=9207.5kbits/s speed=0.0116x elapsed=0:00:58.86    \nframe=   43 fps=0.7 q=8.4 size=     768KiB time=00:00:00.68 bitrate=9207.5kbits/s speed=0.0115x elapsed=0:00:59.41    \nframe=   43 fps=0.7 q=8.4 size=     768KiB time=00:00:00.68 bitrate=9207.5kbits/s speed=0.0114x elapsed=0:00:59.97    \nframe=   43 fps=0.7 q=8.4 size=     768KiB time=00:00:00.68 bitrate=9207.5kbits/s speed=0.0113x elapsed=0:01:00.48    \nframe=   43 fps=0.7 q=8.4 size=     768KiB time=00:00:00.68 bitrate=9207.5kbits/s speed=0.0112x elapsed=0:01:01.01    \nframe=   44 fps=0.7 q=6.3 size=     768KiB time=00:00:00.70 bitrate=8988.3kbits/s speed=0.0114x elapsed=0:01:01.57    \nframe=   44 fps=0.7 q=6.3 size=     768KiB time=00:00:00.70 bitrate=8988.3kbits/s speed=0.0113x elapsed=0:01:02.19    \nframe=   44 fps=0.7 q=6.3 size=     768KiB time=00:00:00.70 bitrate=8988.3kbits/s speed=0.0112x elapsed=0:01:02.75    \nframe=   45 fps=0.7 q=7.1 size=     768KiB time=00:00:00.71 bitrate=8779.3kbits/s speed=0.0113x elapsed=0:01:03.30    \nframe=   45 fps=0.7 q=7.1 size=     768KiB time=00:00:00.71 bitrate=8779.3kbits/s speed=0.0112x elapsed=0:01:03.83    \nframe=   45 fps=0.7 q=7.1 size=     768KiB time=00:00:00.71 bitrate=8779.3kbits/s speed=0.0111x elapsed=0:01:04.39    \nframe=   45 fps=0.7 q=7.1 size=     768KiB time=00:00:00.71 bitrate=8779.3kbits/s speed=0.011x elapsed=0:01:04.97    \nframe=   45 fps=0.7 q=7.1 size=     768KiB time=00:00:00.71 bitrate=8779.3kbits/s speed=0.0109x elapsed=0:01:05.62    \nframe=   45 fps=0.7 q=7.1 size=     768KiB time=00:00:00.71 bitrate=8779.3kbits/s speed=0.0108x elapsed=0:01:06.23    \nframe=   45 fps=0.7 q=7.1 size=     768KiB time=00:00:00.71 bitrate=8779.3kbits/s speed=0.0107x elapsed=0:01:06.81    \nframe=   46 fps=0.7 q=8.5 size=     768KiB time=00:00:00.73 bitrate=8579.7kbits/s speed=0.0109x elapsed=0:01:07.42    \nframe=   46 fps=0.7 q=8.5 size=     768KiB time=00:00:00.73 bitrate=8579.7kbits/s speed=0.0108x elapsed=0:01:07.99    \nframe=   46 fps=0.7 q=8.5 size=     768KiB time=00:00:00.73 bitrate=8579.7kbits/s speed=0.0107x elapsed=0:01:08.60    \nframe=   46 fps=0.7 q=8.5 size=     768KiB time=00:00:00.73 bitrate=8579.7kbits/s speed=0.0106x elapsed=0:01:09.21    \nframe=   46 fps=0.7 q=8.5 size=     768KiB time=00:00:00.73 bitrate=8579.7kbits/s speed=0.0105x elapsed=0:01:09.81    \nframe=   47 fps=0.7 q=7.4 size=     768KiB time=00:00:00.75 bitrate=8389.1kbits/s speed=0.0107x elapsed=0:01:10.34    \nframe=   47 fps=0.7 q=7.4 size=     768KiB time=00:00:00.75 bitrate=8389.1kbits/s speed=0.0106x elapsed=0:01:10.85    \nframe=   48 fps=0.7 q=8.3 size=     768KiB time=00:00:00.76 bitrate=8206.7kbits/s speed=0.0107x elapsed=0:01:11.44    \nframe=   48 fps=0.7 q=8.3 size=     768KiB time=00:00:00.76 bitrate=8206.7kbits/s speed=0.0106x elapsed=0:01:12.00    \nframe=   48 fps=0.7 q=8.3 size=     768KiB time=00:00:00.76 bitrate=8206.7kbits/s speed=0.0106x elapsed=0:01:12.54    \nframe=   49 fps=0.7 q=9.3 size=     768KiB time=00:00:00.78 bitrate=8032.1kbits/s speed=0.0107x elapsed=0:01:13.06    \nframe=   50 fps=0.7 q=9.5 size=    1024KiB time=00:00:00.80 bitrate=10486.2kbits/s speed=0.0109x elapsed=0:01:13.58    \nframe=   51 fps=0.7 q=9.5 size=    1024KiB time=00:00:00.81 bitrate=10272.2kbits/s speed=0.011x elapsed=0:01:14.11    \nframe=   51 fps=0.7 q=9.5 size=    1024KiB time=00:00:00.81 bitrate=10272.2kbits/s speed=0.0109x elapsed=0:01:14.67    \nframe=   51 fps=0.7 q=9.5 size=    1024KiB time=00:00:00.81 bitrate=10272.2kbits/s speed=0.0109x elapsed=0:01:15.21    \nframe=   52 fps=0.7 q=7.3 size=    1024KiB time=00:00:00.83 bitrate=10066.8kbits/s speed=0.011x elapsed=0:01:15.75    \nframe=   53 fps=0.7 q=8.5 size=    1024KiB time=00:00:00.85 bitrate=9869.4kbits/s speed=0.0111x elapsed=0:01:16.27    \nframe=   54 fps=0.7 q=9.5 size=    1024KiB time=00:00:00.86 bitrate=9679.6kbits/s speed=0.0113x elapsed=0:01:16.79    \nframe=   55 fps=0.7 q=9.4 size=    1024KiB time=00:00:00.88 bitrate=9496.9kbits/s speed=0.0114x elapsed=0:01:17.32    \nframe=   56 fps=0.7 q=9.5 size=    1024KiB time=00:00:00.90 bitrate=9321.1kbits/s speed=0.0116x elapsed=0:01:17.85    \nframe=   56 fps=0.7 q=9.5 size=    1024KiB time=00:00:00.90 bitrate=9321.1kbits/s speed=0.0115x elapsed=0:01:18.37    \nframe=   56 fps=0.7 q=9.5 size=    1024KiB time=00:00:00.90 bitrate=9321.1kbits/s speed=0.0114x elapsed=0:01:18.89    \nframe=   58 fps=0.7 q=8.6 size=    1024KiB time=00:00:00.93 bitrate=8988.2kbits/s speed=0.0118x elapsed=0:01:19.41    \nframe=   58 fps=0.7 q=8.6 size=    1024KiB time=00:00:00.93 bitrate=8988.2kbits/s speed=0.0117x elapsed=0:01:19.94    \nframe=   59 fps=0.7 q=9.6 size=    1280KiB time=00:00:00.95 bitrate=11038.0kbits/s speed=0.0118x elapsed=0:01:20.47    \nframe=   60 fps=0.7 q=9.6 size=    1280KiB time=00:00:00.96 bitrate=10847.7kbits/s speed=0.0119x elapsed=0:01:20.99    \nframe=   60 fps=0.7 q=9.6 size=    1280KiB time=00:00:00.96 bitrate=10847.7kbits/s speed=0.0119x elapsed=0:01:21.51    \nframe=   61 fps=0.7 q=9.6 size=    1280KiB time=00:00:00.98 bitrate=10663.8kbits/s speed=0.012x elapsed=0:01:22.03    \nframe=   62 fps=0.8 q=7.5 size=    1280KiB time=00:00:01.00 bitrate=10486.1kbits/s speed=0.0121x elapsed=0:01:22.56    \nframe=   63 fps=0.8 q=8.4 size=    1280KiB time=00:00:01.01 bitrate=10314.2kbits/s speed=0.0122x elapsed=0:01:23.08    \nframe=   65 fps=0.8 q=8.4 size=    1280KiB time=00:00:01.05 bitrate=9986.8kbits/s speed=0.0126x elapsed=0:01:23.60    \nframe=   65 fps=0.8 q=8.4 size=    1280KiB time=00:00:01.05 bitrate=9986.8kbits/s speed=0.0125x elapsed=0:01:24.15    \nframe=   65 fps=0.8 q=8.4 size=    1280KiB time=00:00:01.05 bitrate=9986.8kbits/s speed=0.0124x elapsed=0:01:24.73    \nframe=   66 fps=0.8 q=8.7 size=    1280KiB time=00:00:01.06 bitrate=9830.7kbits/s speed=0.0125x elapsed=0:01:25.27    \nframe=   66 fps=0.8 q=8.7 size=    1280KiB time=00:00:01.06 bitrate=9830.7kbits/s speed=0.0124x elapsed=0:01:25.78    \nframe=   67 fps=0.8 q=9.7 size=    1280KiB time=00:00:01.08 bitrate=9679.5kbits/s speed=0.0125x elapsed=0:01:26.32    \nframe=   67 fps=0.8 q=9.7 size=    1280KiB time=00:00:01.08 bitrate=9679.5kbits/s speed=0.0125x elapsed=0:01:26.84    \nframe=   67 fps=0.8 q=9.7 size=    1280KiB time=00:00:01.08 bitrate=9679.5kbits/s speed=0.0124x elapsed=0:01:27.39    \nframe=   67 fps=0.8 q=9.7 size=    1280KiB time=00:00:01.08 bitrate=9679.5kbits/s speed=0.0123x elapsed=0:01:27.92    \nframe=   68 fps=0.8 q=9.7 size=    1536KiB time=00:00:01.10 bitrate=11439.3kbits/s speed=0.0124x elapsed=0:01:28.47    \nframe=   68 fps=0.8 q=9.7 size=    1536KiB time=00:00:01.10 bitrate=11439.3kbits/s speed=0.0124x elapsed=0:01:29.01    \nframe=   68 fps=0.8 q=9.7 size=    1536KiB time=00:00:01.10 bitrate=11439.3kbits/s speed=0.0123x elapsed=0:01:29.53    \nframe=   69 fps=0.8 q=10.5 size=    1536KiB time=00:00:01.11 bitrate=11268.6kbits/s speed=0.0124x elapsed=0:01:30.07    \nframe=   70 fps=0.8 q=8.3 size=    1536KiB time=00:00:01.13 bitrate=11102.9kbits/s speed=0.0125x elapsed=0:01:30.61    \nframe=   70 fps=0.8 q=8.3 size=    1536KiB time=00:00:01.13 bitrate=11102.9kbits/s speed=0.0124x elapsed=0:01:31.11    \nframe=   71 fps=0.8 q=9.3 size=    1536KiB time=00:00:01.15 bitrate=10942.0kbits/s speed=0.0125x elapsed=0:01:31.64    \nframe=   71 fps=0.8 q=9.3 size=    1536KiB time=00:00:01.15 bitrate=10942.0kbits/s speed=0.0125x elapsed=0:01:32.17    \nframe=   72 fps=0.8 q=10.6 size=    1536KiB time=00:00:01.16 bitrate=10785.7kbits/s speed=0.0126x elapsed=0:01:32.68    \nframe=   72 fps=0.8 q=10.6 size=    1536KiB time=00:00:01.16 bitrate=10785.7kbits/s speed=0.0125x elapsed=0:01:33.21    \nframe=   73 fps=0.8 q=10.6 size=    1536KiB time=00:00:01.18 bitrate=10633.7kbits/s speed=0.0126x elapsed=0:01:33.73    \nframe=   73 fps=0.8 q=10.6 size=    1536KiB time=00:00:01.18 bitrate=10633.7kbits/s speed=0.0126x elapsed=0:01:34.24    \nframe=   73 fps=0.8 q=10.6 size=    1536KiB time=00:00:01.18 bitrate=10633.7kbits/s speed=0.0125x elapsed=0:01:34.76    \nframe=   74 fps=0.8 q=10.6 size=    1536KiB time=00:00:01.20 bitrate=10486.1kbits/s speed=0.0126x elapsed=0:01:35.27    \nframe=   74 fps=0.8 q=10.6 size=    1536KiB time=00:00:01.20 bitrate=10486.1kbits/s speed=0.0125x elapsed=0:01:35.81    \nframe=   74 fps=0.8 q=10.6 size=    1536KiB time=00:00:01.20 bitrate=10486.1kbits/s speed=0.0125x elapsed=0:01:36.35    \nframe=   74 fps=0.8 q=10.6 size=    1536KiB time=00:00:01.20 bitrate=10486.1kbits/s speed=0.0124x elapsed=0:01:36.87    \nframe=   76 fps=0.8 q=9.3 size=    1536KiB time=00:00:01.23 bitrate=10202.6kbits/s speed=0.0127x elapsed=0:01:37.41    \nframe=   76 fps=0.8 q=9.3 size=    1536KiB time=00:00:01.23 bitrate=10202.6kbits/s speed=0.0126x elapsed=0:01:37.93    \nframe=   76 fps=0.8 q=9.3 size=    1536KiB time=00:00:01.23 bitrate=10202.6kbits/s speed=0.0125x elapsed=0:01:38.44    \nframe=   76 fps=0.8 q=9.3 size=    1536KiB time=00:00:01.23 bitrate=10202.6kbits/s speed=0.0125x elapsed=0:01:38.96    \nframe=   77 fps=0.8 q=10.6 size=    1536KiB time=00:00:01.25 bitrate=10066.6kbits/s speed=0.0126x elapsed=0:01:39.48    \nframe=   78 fps=0.8 q=10.6 size=    1792KiB time=00:00:01.26 bitrate=11589.8kbits/s speed=0.0127x elapsed=0:01:40.02    \nframe=   78 fps=0.8 q=10.6 size=    1792KiB time=00:00:01.26 bitrate=11589.8kbits/s speed=0.0126x elapsed=0:01:40.55    \nframe=   78 fps=0.8 q=10.6 size=    1792KiB time=00:00:01.26 bitrate=11589.8kbits/s speed=0.0125x elapsed=0:01:41.07    \nframe=   79 fps=0.8 q=10.5 size=    1792KiB time=00:00:01.28 bitrate=11439.3kbits/s speed=0.0126x elapsed=0:01:41.59    \nframe=   79 fps=0.8 q=10.5 size=    1792KiB time=00:00:01.28 bitrate=11439.3kbits/s speed=0.0126x elapsed=0:01:42.10    \nframe=   80 fps=0.8 q=8.2 size=    1792KiB time=00:00:01.28 bitrate=11439.3kbits/s speed=0.0125x elapsed=0:01:42.63    \nframe=   80 fps=0.8 q=8.2 size=    1792KiB time=00:00:01.30 bitrate=11292.6kbits/s speed=0.0126x elapsed=0:01:43.16    \nframe=   80 fps=0.8 q=8.2 size=    1792KiB time=00:00:01.30 bitrate=11292.6kbits/s speed=0.0125x elapsed=0:01:43.68    \nframe=   81 fps=0.8 q=9.4 size=    1792KiB time=00:00:01.31 bitrate=11149.7kbits/s speed=0.0126x elapsed=0:01:44.20    \nframe=   81 fps=0.8 q=9.4 size=    1792KiB time=00:00:01.31 bitrate=11149.7kbits/s speed=0.0126x elapsed=0:01:44.71    \nframe=   82 fps=0.8 q=10.5 size=    1792KiB time=00:00:01.33 bitrate=11010.3kbits/s speed=0.0127x elapsed=0:01:45.23    \nframe=   82 fps=0.8 q=10.5 size=    1792KiB time=00:00:01.33 bitrate=11010.3kbits/s speed=0.0126x elapsed=0:01:45.74    \nframe=   83 fps=0.8 q=8.0 size=    1792KiB time=00:00:01.35 bitrate=10874.4kbits/s speed=0.0127x elapsed=0:01:46.27    \nframe=   83 fps=0.8 q=8.0 size=    1792KiB time=00:00:01.35 bitrate=10874.4kbits/s speed=0.0126x elapsed=0:01:46.80    \nframe=   84 fps=0.8 q=9.5 size=    1792KiB time=00:00:01.36 bitrate=10741.8kbits/s speed=0.0127x elapsed=0:01:47.32    \nframe=   84 fps=0.8 q=9.5 size=    1792KiB time=00:00:01.36 bitrate=10741.8kbits/s speed=0.0127x elapsed=0:01:47.85    \nframe=   85 fps=0.8 q=10.6 size=    1792KiB time=00:00:01.38 bitrate=10612.4kbits/s speed=0.0128x elapsed=0:01:48.36    \nframe=   85 fps=0.8 q=10.6 size=    1792KiB time=00:00:01.38 bitrate=10612.4kbits/s speed=0.0127x elapsed=0:01:48.90    \nframe=   86 fps=0.8 q=10.5 size=    1792KiB time=00:00:01.40 bitrate=10486.0kbits/s speed=0.0128x elapsed=0:01:49.42    \nframe=   87 fps=0.8 q=11.4 size=    1792KiB time=00:00:01.41 bitrate=10362.6kbits/s speed=0.0129x elapsed=0:01:49.94    \nframe=   87 fps=0.8 q=11.4 size=    1792KiB time=00:00:01.41 bitrate=10362.6kbits/s speed=0.0128x elapsed=0:01:50.46    \nframe=   87 fps=0.8 q=11.4 size=    1792KiB time=00:00:01.41 bitrate=10362.6kbits/s speed=0.0128x elapsed=0:01:50.99    \nframe=   88 fps=0.8 q=8.9 size=    2048KiB time=00:00:01.43 bitrate=11705.3kbits/s speed=0.0129x elapsed=0:01:51.52    \nframe=   88 fps=0.8 q=8.9 size=    2048KiB time=00:00:01.43 bitrate=11705.3kbits/s speed=0.0128x elapsed=0:01:52.04    \nframe=   88 fps=0.8 q=8.9 size=    2048KiB time=00:00:01.43 bitrate=11705.3kbits/s speed=0.0127x elapsed=0:01:52.56    \nframe=   89 fps=0.8 q=10.3 size=    2048KiB time=00:00:01.45 bitrate=11570.7kbits/s speed=0.0128x elapsed=0:01:53.07    \nframe=   89 fps=0.8 q=10.3 size=    2048KiB time=00:00:01.45 bitrate=11570.7kbits/s speed=0.0128x elapsed=0:01:53.59    \nframe=   89 fps=0.8 q=10.3 size=    2048KiB time=00:00:01.45 bitrate=11570.7kbits/s speed=0.0127x elapsed=0:01:54.11    \nframe=   89 fps=0.8 q=10.3 size=    2048KiB time=00:00:01.45 bitrate=11570.7kbits/s speed=0.0126x elapsed=0:01:54.63    \nframe=   90 fps=0.8 q=11.4 size=    2048KiB time=00:00:01.46 bitrate=11439.2kbits/s speed=0.0127x elapsed=0:01:55.14    \nframe=   90 fps=0.8 q=11.4 size=    2048KiB time=00:00:01.46 bitrate=11439.2kbits/s speed=0.0127x elapsed=0:01:55.68    \nframe=   90 fps=0.8 q=11.4 size=    2048KiB time=00:00:01.46 bitrate=11439.2kbits/s speed=0.0126x elapsed=0:01:56.21    \nframe=   91 fps=0.8 q=9.6 size=    2048KiB time=00:00:01.48 bitrate=11310.7kbits/s speed=0.0127x elapsed=0:01:56.72    \nframe=   92 fps=0.8 q=10.4 size=    2048KiB time=00:00:01.50 bitrate=11185.0kbits/s speed=0.0128x elapsed=0:01:57.24    \nframe=   93 fps=0.8 q=11.4 size=    2048KiB time=00:00:01.51 bitrate=11062.1kbits/s speed=0.0129x elapsed=0:01:57.77    \nframe=   93 fps=0.8 q=11.4 size=    2048KiB time=00:00:01.51 bitrate=11062.1kbits/s speed=0.0128x elapsed=0:01:58.28    \nframe=   94 fps=0.8 q=11.5 size=    2048KiB time=00:00:01.53 bitrate=10941.9kbits/s speed=0.0129x elapsed=0:01:58.79    \nframe=   94 fps=0.8 q=11.5 size=    2048KiB time=00:00:01.53 bitrate=10941.9kbits/s speed=0.0128x elapsed=0:01:59.34    \nframe=   94 fps=0.8 q=11.5 size=    2048KiB time=00:00:01.53 bitrate=10941.9kbits/s speed=0.0128x elapsed=0:01:59.87    \nframe=   94 fps=0.8 q=11.5 size=    2048KiB time=00:00:01.53 bitrate=10941.9kbits/s speed=0.0127x elapsed=0:02:00.38    \nframe=   94 fps=0.8 q=11.5 size=    2048KiB time=00:00:01.53 bitrate=10941.9kbits/s speed=0.0127x elapsed=0:02:00.90    \nframe=   95 fps=0.8 q=11.4 size=    2048KiB time=00:00:01.55 bitrate=10824.2kbits/s speed=0.0128x elapsed=0:02:01.48    \nframe=   95 fps=0.8 q=11.4 size=    2048KiB time=00:00:01.55 bitrate=10824.2kbits/s speed=0.0127x elapsed=0:02:02.11    \nframe=   95 fps=0.8 q=11.4 size=    2048KiB time=00:00:01.55 bitrate=10824.2kbits/s speed=0.0126x elapsed=0:02:02.67    \nframe=   96 fps=0.8 q=8.6 size=    2048KiB time=00:00:01.56 bitrate=10709.1kbits/s speed=0.0127x elapsed=0:02:03.19    \nframe=   96 fps=0.8 q=8.6 size=    2048KiB time=00:00:01.56 bitrate=10709.1kbits/s speed=0.0127x elapsed=0:02:03.72    \nframe=   97 fps=0.8 q=9.7 size=    2048KiB time=00:00:01.58 bitrate=10596.4kbits/s speed=0.0127x elapsed=0:02:04.24    \nframe=   97 fps=0.8 q=9.7 size=    2048KiB time=00:00:01.58 bitrate=10596.4kbits/s speed=0.0127x elapsed=0:02:04.76    \nframe=   97 fps=0.8 q=9.7 size=    2048KiB time=00:00:01.58 bitrate=10596.4kbits/s speed=0.0126x elapsed=0:02:05.28    \nframe=   99 fps=0.8 q=11.4 size=    2304KiB time=00:00:01.61 bitrate=11675.1kbits/s speed=0.0128x elapsed=0:02:05.82    \nframe=   99 fps=0.8 q=11.4 size=    2304KiB time=00:00:01.61 bitrate=11675.1kbits/s speed=0.0128x elapsed=0:02:06.36    \nframe=  100 fps=0.8 q=11.3 size=    2304KiB time=00:00:01.63 bitrate=11556.0kbits/s speed=0.0129x elapsed=0:02:06.86    \nframe=  101 fps=0.8 q=8.7 size=    2304KiB time=00:00:01.65 bitrate=11439.2kbits/s speed=0.013x elapsed=0:02:07.38    \nframe=  102 fps=0.8 q=9.8 size=    2304KiB time=00:00:01.66 bitrate=11324.8kbits/s speed=0.013x elapsed=0:02:07.90    \nframe=  102 fps=0.8 q=9.8 size=    2304KiB time=00:00:01.66 bitrate=11324.8kbits/s speed=0.013x elapsed=0:02:08.41    \nframe=  103 fps=0.8 q=11.2 size=    2304KiB time=00:00:01.68 bitrate=11212.7kbits/s speed=0.0131x elapsed=0:02:08.94    \nframe=  103 fps=0.8 q=11.2 size=    2304KiB time=00:00:01.68 bitrate=11212.7kbits/s speed=0.013x elapsed=0:02:09.46    \nframe=  104 fps=0.8 q=11.1 size=    2304KiB time=00:00:01.70 bitrate=11102.8kbits/s speed=0.0131x elapsed=0:02:09.99    \nframe=  104 fps=0.8 q=11.1 size=    2304KiB time=00:00:01.70 bitrate=11102.8kbits/s speed=0.013x elapsed=0:02:10.52    \nframe=  105 fps=0.8 q=11.1 size=    2304KiB time=00:00:01.71 bitrate=10995.0kbits/s speed=0.0131x elapsed=0:02:11.03    \nframe=  105 fps=0.8 q=11.1 size=    2304KiB time=00:00:01.71 bitrate=10995.0kbits/s speed=0.013x elapsed=0:02:11.54    \nframe=  105 fps=0.8 q=11.1 size=    2304KiB time=00:00:01.71 bitrate=10995.0kbits/s speed=0.013x elapsed=0:02:12.08    \nframe=  106 fps=0.8 q=7.9 size=    2304KiB time=00:00:01.73 bitrate=10889.3kbits/s speed=0.0131x elapsed=0:02:12.60    \nframe=  106 fps=0.8 q=7.9 size=    2304KiB time=00:00:01.73 bitrate=10889.3kbits/s speed=0.013x elapsed=0:02:13.12    \nframe=  107 fps=0.8 q=8.9 size=    2304KiB time=00:00:01.75 bitrate=10785.6kbits/s speed=0.0131x elapsed=0:02:13.64    \nframe=  107 fps=0.8 q=8.9 size=    2304KiB time=00:00:01.75 bitrate=10785.6kbits/s speed=0.013x elapsed=0:02:14.16    \nframe=  107 fps=0.8 q=8.9 size=    2304KiB time=00:00:01.75 bitrate=10785.6kbits/s speed=0.013x elapsed=0:02:14.69    \nframe=  107 fps=0.8 q=8.9 size=    2304KiB time=00:00:01.75 bitrate=10785.6kbits/s speed=0.0129x elapsed=0:02:15.19    \nframe=  108 fps=0.8 q=10.4 size=    2304KiB time=00:00:01.76 bitrate=10683.8kbits/s speed=0.013x elapsed=0:02:15.72    \nframe=  108 fps=0.8 q=10.4 size=    2304KiB time=00:00:01.76 bitrate=10683.8kbits/s speed=0.013x elapsed=0:02:16.24    \nframe=  109 fps=0.8 q=8.9 size=    2560KiB time=00:00:01.78 bitrate=11759.9kbits/s speed=0.013x elapsed=0:02:16.76    \nframe=  109 fps=0.8 q=8.9 size=    2560KiB time=00:00:01.78 bitrate=11759.9kbits/s speed=0.013x elapsed=0:02:17.30    \nframe=  110 fps=0.8 q=9.5 size=    2560KiB time=00:00:01.80 bitrate=11651.0kbits/s speed=0.0131x elapsed=0:02:17.80    \nframe=  111 fps=0.8 q=11.1 size=    2560KiB time=00:00:01.81 bitrate=11544.1kbits/s speed=0.0131x elapsed=0:02:18.32    \nframe=  111 fps=0.8 q=11.1 size=    2560KiB time=00:00:01.81 bitrate=11544.1kbits/s speed=0.0131x elapsed=0:02:18.85    \nframe=  112 fps=0.8 q=11.2 size=    2560KiB time=00:00:01.83 bitrate=11439.2kbits/s speed=0.0132x elapsed=0:02:19.37    \nframe=  113 fps=0.8 q=11.1 size=    2560KiB time=00:00:01.85 bitrate=11336.1kbits/s speed=0.0132x elapsed=0:02:19.90    \nframe=  113 fps=0.8 q=11.1 size=    2560KiB time=00:00:01.85 bitrate=11336.1kbits/s speed=0.0132x elapsed=0:02:20.43    \nframe=  113 fps=0.8 q=11.1 size=    2560KiB time=00:00:01.85 bitrate=11336.1kbits/s speed=0.0131x elapsed=0:02:20.95    \nframe=  114 fps=0.8 q=7.9 size=    2560KiB time=00:00:01.86 bitrate=11234.9kbits/s speed=0.0132x elapsed=0:02:21.47    \nframe=  115 fps=0.8 q=9.9 size=    2560KiB time=00:00:01.88 bitrate=11135.5kbits/s speed=0.0133x elapsed=0:02:22.00    \nframe=  115 fps=0.8 q=9.9 size=    2560KiB time=00:00:01.88 bitrate=11135.5kbits/s speed=0.0132x elapsed=0:02:22.53    \nframe=  116 fps=0.8 q=11.3 size=    2560KiB time=00:00:01.90 bitrate=11037.8kbits/s speed=0.0133x elapsed=0:02:23.03    \nframe=  116 fps=0.8 q=11.3 size=    2560KiB time=00:00:01.90 bitrate=11037.8kbits/s speed=0.0132x elapsed=0:02:23.57    \nframe=  116 fps=0.8 q=11.3 size=    2560KiB time=00:00:01.90 bitrate=11037.8kbits/s speed=0.0132x elapsed=0:02:24.12    \nframe=  117 fps=0.8 q=8.8 size=    2560KiB time=00:00:01.91 bitrate=10941.8kbits/s speed=0.0133x elapsed=0:02:24.64    \nframe=  118 fps=0.8 q=10.0 size=    2560KiB time=00:00:01.93 bitrate=10847.5kbits/s speed=0.0133x elapsed=0:02:25.16    \nframe=  119 fps=0.8 q=11.3 size=    2816KiB time=00:00:01.95 bitrate=11830.3kbits/s speed=0.0134x elapsed=0:02:25.69    \nframe=  119 fps=0.8 q=11.3 size=    2816KiB time=00:00:01.95 bitrate=11830.3kbits/s speed=0.0133x elapsed=0:02:26.25    \nframe=  120 fps=0.8 q=11.3 size=    2816KiB time=00:00:01.96 bitrate=11730.0kbits/s speed=0.0134x elapsed=0:02:26.78    \nframe=  120 fps=0.8 q=11.3 size=    2816KiB time=00:00:01.96 bitrate=11730.0kbits/s speed=0.0133x elapsed=0:02:27.36    \nframe=  120 fps=0.8 q=11.3 size=    2816KiB time=00:00:01.96 bitrate=11730.0kbits/s speed=0.0133x elapsed=0:02:27.90    \nframe=  120 fps=0.8 q=11.3 size=    2816KiB time=00:00:01.96 bitrate=11730.0kbits/s speed=0.0132x elapsed=0:02:28.48    \nframe=  120 fps=0.8 q=11.3 size=    2816KiB time=00:00:01.96 bitrate=11730.0kbits/s speed=0.0132x elapsed=0:02:29.03    \nframe=  120 fps=0.8 q=11.3 size=    2816KiB time=00:00:01.96 bitrate=11730.0kbits/s speed=0.0131x elapsed=0:02:29.57    \nframe=  120 fps=0.8 q=11.3 size=    2816KiB time=00:00:01.96 bitrate=11730.0kbits/s speed=0.0131x elapsed=0:02:30.16    \nframe=  121 fps=0.8 q=8.7 size=    2816KiB time=00:00:01.98 bitrate=11631.4kbits/s speed=0.0132x elapsed=0:02:30.71    \nframe=  121 fps=0.8 q=8.7 size=    2816KiB time=00:00:01.98 bitrate=11631.4kbits/s speed=0.0131x elapsed=0:02:31.25    \nframe=  121 fps=0.8 q=8.7 size=    2816KiB time=00:00:01.98 bitrate=11631.4kbits/s speed=0.0131x elapsed=0:02:31.77    \nframe=  121 fps=0.8 q=8.7 size=    2816KiB time=00:00:01.98 bitrate=11631.4kbits/s speed=0.013x elapsed=0:02:32.29    \nframe=  123 fps=0.8 q=9.4 size=    2816KiB time=00:00:02.01 bitrate=11439.2kbits/s speed=0.0132x elapsed=0:02:32.80    \nframe=  123 fps=0.8 q=9.4 size=    2816KiB time=00:00:02.01 bitrate=11439.2kbits/s speed=0.0132x elapsed=0:02:33.34    \nframe=  123 fps=0.8 q=9.4 size=    2816KiB time=00:00:02.01 bitrate=11439.2kbits/s speed=0.0131x elapsed=0:02:33.86    \nframe=  124 fps=0.8 q=10.9 size=    2816KiB time=00:00:02.03 bitrate=11345.4kbits/s speed=0.0132x elapsed=0:02:34.36    \nframe=  126 fps=0.8 q=12.3 size=    2816KiB time=00:00:02.06 bitrate=11162.4kbits/s speed=0.0133x elapsed=0:02:34.88    \nframe=  127 fps=0.8 q=9.4 size=    2816KiB time=00:00:02.08 bitrate=11073.1kbits/s speed=0.0134x elapsed=0:02:35.40    \nframe=  128 fps=0.8 q=10.5 size=    2816KiB time=00:00:02.10 bitrate=10985.2kbits/s speed=0.0135x elapsed=0:02:35.92    \nframe=  128 fps=0.8 q=10.5 size=    2816KiB time=00:00:02.10 bitrate=10985.2kbits/s speed=0.0134x elapsed=0:02:36.43    \nframe=  131 fps=0.8 q=12.2 size=    3072KiB time=00:00:02.15 bitrate=11705.2kbits/s speed=0.0137x elapsed=0:02:36.94    \nframe=  132 fps=0.8 q=8.2 size=    3072KiB time=00:00:02.16 bitrate=11615.2kbits/s speed=0.0138x elapsed=0:02:37.46    \nframe=  132 fps=0.8 q=8.2 size=    3072KiB time=00:00:02.16 bitrate=11615.2kbits/s speed=0.0137x elapsed=0:02:37.99    \nframe=  132 fps=0.8 q=8.2 size=    3072KiB time=00:00:02.16 bitrate=11615.2kbits/s speed=0.0137x elapsed=0:02:38.51    \nframe=  132 fps=0.8 q=8.2 size=    3072KiB time=00:00:02.16 bitrate=11615.2kbits/s speed=0.0136x elapsed=0:02:39.05    \nframe=  132 fps=0.8 q=8.2 size=    3072KiB time=00:00:02.16 bitrate=11615.2kbits/s speed=0.0136x elapsed=0:02:39.59    \nframe=  132 fps=0.8 q=8.2 size=    3072KiB time=00:00:02.16 bitrate=11615.2kbits/s speed=0.0135x elapsed=0:02:40.11    \nframe=  133 fps=0.8 q=9.5 size=    3072KiB time=00:00:02.18 bitrate=11526.5kbits/s speed=0.0136x elapsed=0:02:40.64    \nframe=  133 fps=0.8 q=9.5 size=    3072KiB time=00:00:02.18 bitrate=11526.5kbits/s speed=0.0135x elapsed=0:02:41.16    \nframe=  133 fps=0.8 q=9.5 size=    3072KiB time=00:00:02.18 bitrate=11526.5kbits/s speed=0.0135x elapsed=0:02:41.68    \nframe=  136 fps=0.8 q=11.2 size=    3072KiB time=00:00:02.23 bitrate=11268.4kbits/s speed=0.0138x elapsed=0:02:42.19    \nframe=  136 fps=0.8 q=11.2 size=    3072KiB time=00:00:02.23 bitrate=11268.4kbits/s speed=0.0137x elapsed=0:02:42.75    \nframe=  136 fps=0.8 q=11.2 size=    3072KiB time=00:00:02.23 bitrate=11268.4kbits/s speed=0.0137x elapsed=0:02:43.27    \nframe=  136 fps=0.8 q=11.2 size=    3072KiB time=00:00:02.23 bitrate=11268.4kbits/s speed=0.0136x elapsed=0:02:43.78    \nframe=  137 fps=0.8 q=7.7 size=    3072KiB time=00:00:02.25 bitrate=11185.0kbits/s speed=0.0137x elapsed=0:02:44.33    \nframe=  137 fps=0.8 q=7.7 size=    3072KiB time=00:00:02.25 bitrate=11185.0kbits/s speed=0.0136x elapsed=0:02:44.87    \nframe=  138 fps=0.8 q=9.1 size=    3072KiB time=00:00:02.26 bitrate=11102.7kbits/s speed=0.0137x elapsed=0:02:45.38    \nframe=  138 fps=0.8 q=9.1 size=    3072KiB time=00:00:02.26 bitrate=11102.7kbits/s speed=0.0137x elapsed=0:02:45.90    \nframe=  139 fps=0.8 q=10.2 size=    3072KiB time=00:00:02.28 bitrate=11021.7kbits/s speed=0.0137x elapsed=0:02:46.41    \nframe=  139 fps=0.8 q=10.2 size=    3072KiB time=00:00:02.28 bitrate=11021.7kbits/s speed=0.0137x elapsed=0:02:46.93    \nframe=  141 fps=0.8 q=10.1 size=    3328KiB time=00:00:02.31 bitrate=11768.3kbits/s speed=0.0138x elapsed=0:02:47.46    \nframe=  141 fps=0.8 q=10.1 size=    3328KiB time=00:00:02.31 bitrate=11768.3kbits/s speed=0.0138x elapsed=0:02:47.99    \nframe=  142 fps=0.8 q=7.4 size=    3328KiB time=00:00:02.33 bitrate=11684.3kbits/s speed=0.0138x elapsed=0:02:48.53    \nframe=  142 fps=0.8 q=7.4 size=    3328KiB time=00:00:02.33 bitrate=11684.3kbits/s speed=0.0138x elapsed=0:02:49.06    \nframe=  143 fps=0.8 q=8.9 size=    3328KiB time=00:00:02.35 bitrate=11601.4kbits/s speed=0.0139x elapsed=0:02:49.60    \nframe=  143 fps=0.8 q=8.9 size=    3328KiB time=00:00:02.35 bitrate=11601.4kbits/s speed=0.0138x elapsed=0:02:50.13    \nframe=  143 fps=0.8 q=8.9 size=    3328KiB time=00:00:02.35 bitrate=11601.4kbits/s speed=0.0138x elapsed=0:02:50.67    \nframe=  143 fps=0.8 q=8.9 size=    3328KiB time=00:00:02.35 bitrate=11601.4kbits/s speed=0.0137x elapsed=0:02:51.18    \nframe=  145 fps=0.8 q=10.0 size=    3328KiB time=00:00:02.38 bitrate=11439.2kbits/s speed=0.0139x elapsed=0:02:51.70    \nframe=  146 fps=0.8 q=7.2 size=    3328KiB time=00:00:02.40 bitrate=11359.7kbits/s speed=0.0139x elapsed=0:02:52.22    \nframe=  146 fps=0.8 q=7.2 size=    3328KiB time=00:00:02.40 bitrate=11359.7kbits/s speed=0.0139x elapsed=0:02:52.79    \nframe=  147 fps=0.8 q=8.7 size=    3328KiB time=00:00:02.41 bitrate=11281.4kbits/s speed=0.0139x elapsed=0:02:53.33    \nframe=  147 fps=0.8 q=8.7 size=    3328KiB time=00:00:02.41 bitrate=11281.4kbits/s speed=0.0139x elapsed=0:02:53.85    \nframe=  147 fps=0.8 q=8.7 size=    3328KiB time=00:00:02.41 bitrate=11281.4kbits/s speed=0.0139x elapsed=0:02:54.37    \nframe=  150 fps=0.9 q=10.2 size=    3328KiB time=00:00:02.46 bitrate=11052.7kbits/s speed=0.0141x elapsed=0:02:54.88    \nframe=  150 fps=0.9 q=10.2 size=    3328KiB time=00:00:02.46 bitrate=11052.7kbits/s speed=0.0141x elapsed=0:02:55.40    \nframe=  150 fps=0.9 q=10.2 size=    3328KiB time=00:00:02.46 bitrate=11052.7kbits/s speed=0.014x elapsed=0:02:55.91    \nframe=  151 fps=0.9 q=7.4 size=    3584KiB time=00:00:02.48 bitrate=11823.0kbits/s speed=0.0141x elapsed=0:02:56.44    \nframe=  151 fps=0.9 q=7.4 size=    3584KiB time=00:00:02.48 bitrate=11823.0kbits/s speed=0.014x elapsed=0:02:56.96    \nframe=  151 fps=0.9 q=7.4 size=    3584KiB time=00:00:02.48 bitrate=11823.0kbits/s speed=0.014x elapsed=0:02:57.49    \nframe=  151 fps=0.8 q=7.4 size=    3584KiB time=00:00:02.48 bitrate=11823.0kbits/s speed=0.014x elapsed=0:02:58.00    \nframe=  152 fps=0.9 q=8.7 size=    3584KiB time=00:00:02.50 bitrate=11744.2kbits/s speed=0.014x elapsed=0:02:58.52    \nframe=  152 fps=0.8 q=8.7 size=    3584KiB time=00:00:02.50 bitrate=11744.2kbits/s speed=0.014x elapsed=0:02:59.05    \nframe=  152 fps=0.8 q=8.7 size=    3584KiB time=00:00:02.50 bitrate=11744.2kbits/s speed=0.0139x elapsed=0:02:59.57    \nframe=  152 fps=0.8 q=8.7 size=    3584KiB time=00:00:02.50 bitrate=11744.2kbits/s speed=0.0139x elapsed=0:03:00.08    \nframe=  152 fps=0.8 q=8.7 size=    3584KiB time=00:00:02.50 bitrate=11744.2kbits/s speed=0.0138x elapsed=0:03:00.63    \nframe=  152 fps=0.8 q=8.7 size=    3584KiB time=00:00:02.50 bitrate=11744.2kbits/s speed=0.0138x elapsed=0:03:01.17    \nframe=  154 fps=0.8 q=10.1 size=    3584KiB time=00:00:02.53 bitrate=11589.7kbits/s speed=0.0139x elapsed=0:03:01.70    \nframe=  155 fps=0.9 q=7.6 size=    3584KiB time=00:00:02.55 bitrate=11513.9kbits/s speed=0.014x elapsed=0:03:02.22    \nframe=  155 fps=0.8 q=7.6 size=    3584KiB time=00:00:02.55 bitrate=11513.9kbits/s speed=0.014x elapsed=0:03:02.75    \nframe=  155 fps=0.8 q=7.6 size=    3584KiB time=00:00:02.55 bitrate=11513.9kbits/s speed=0.0139x elapsed=0:03:03.25    \nframe=  155 fps=0.8 q=7.6 size=    3584KiB time=00:00:02.55 bitrate=11513.9kbits/s speed=0.0139x elapsed=0:03:03.78    \nframe=  156 fps=0.8 q=8.7 size=    3584KiB time=00:00:02.56 bitrate=11439.1kbits/s speed=0.0139x elapsed=0:03:04.32    \nframe=  157 fps=0.8 q=10.9 size=    3584KiB time=00:00:02.58 bitrate=11365.3kbits/s speed=0.014x elapsed=0:03:04.87    \nframe=  157 fps=0.8 q=10.9 size=    3584KiB time=00:00:02.58 bitrate=11365.3kbits/s speed=0.0139x elapsed=0:03:05.39    \nframe=  157 fps=0.8 q=10.9 size=    3584KiB time=00:00:02.58 bitrate=11365.3kbits/s speed=0.0139x elapsed=0:03:05.93    \nframe=  158 fps=0.8 q=8.5 size=    3584KiB time=00:00:02.60 bitrate=11292.5kbits/s speed=0.0139x elapsed=0:03:06.47    \nframe=  158 fps=0.8 q=8.5 size=    3584KiB time=00:00:02.60 bitrate=11292.5kbits/s speed=0.0139x elapsed=0:03:06.99    \nframe=  158 fps=0.8 q=8.5 size=    3584KiB time=00:00:02.60 bitrate=11292.5kbits/s speed=0.0139x elapsed=0:03:07.51    \nframe=  159 fps=0.8 q=9.9 size=    3584KiB time=00:00:02.61 bitrate=11220.6kbits/s speed=0.0139x elapsed=0:03:08.05    \nframe=  160 fps=0.8 q=11.1 size=    3584KiB time=00:00:02.63 bitrate=11149.6kbits/s speed=0.014x elapsed=0:03:08.59    \nframe=  160 fps=0.8 q=11.1 size=    3584KiB time=00:00:02.63 bitrate=11149.6kbits/s speed=0.0139x elapsed=0:03:09.12    \nframe=  162 fps=0.9 q=8.5 size=    3840KiB time=00:00:02.66 bitrate=11796.6kbits/s speed=0.0141x elapsed=0:03:09.65    \nframe=  162 fps=0.9 q=8.5 size=    3840KiB time=00:00:02.66 bitrate=11796.6kbits/s speed=0.014x elapsed=0:03:10.17    \nframe=  163 fps=0.9 q=10.0 size=    3840KiB time=00:00:02.68 bitrate=11723.3kbits/s speed=0.0141x elapsed=0:03:10.71    \nframe=  163 fps=0.9 q=10.0 size=    3840KiB time=00:00:02.68 bitrate=11723.3kbits/s speed=0.014x elapsed=0:03:11.23    \nframe=  164 fps=0.9 q=11.2 size=    3840KiB time=00:00:02.70 bitrate=11651.0kbits/s speed=0.0141x elapsed=0:03:11.75    \nframe=  166 fps=0.9 q=8.3 size=    3840KiB time=00:00:02.73 bitrate=11508.9kbits/s speed=0.0142x elapsed=0:03:12.26    \nframe=  166 fps=0.9 q=8.3 size=    3840KiB time=00:00:02.73 bitrate=11508.9kbits/s speed=0.0142x elapsed=0:03:12.79    \nframe=  167 fps=0.9 q=11.0 size=    3840KiB time=00:00:02.75 bitrate=11439.1kbits/s speed=0.0142x elapsed=0:03:13.31    \nframe=  168 fps=0.9 q=8.3 size=    3840KiB time=00:00:02.76 bitrate=11370.2kbits/s speed=0.0143x elapsed=0:03:13.84    \nframe=  168 fps=0.9 q=8.3 size=    3840KiB time=00:00:02.76 bitrate=11370.2kbits/s speed=0.0142x elapsed=0:03:14.38    \nframe=  169 fps=0.9 q=9.6 size=    3840KiB time=00:00:02.78 bitrate=11302.1kbits/s speed=0.0143x elapsed=0:03:14.93    \nframe=  169 fps=0.9 q=9.6 size=    3840KiB time=00:00:02.78 bitrate=11302.1kbits/s speed=0.0142x elapsed=0:03:15.44    \nframe=  171 fps=0.9 q=10.8 size=    3840KiB time=00:00:02.81 bitrate=11168.4kbits/s speed=0.0144x elapsed=0:03:15.96    \nframe=  172 fps=0.9 q=11.1 size=    4096KiB time=00:00:02.83 bitrate=11842.9kbits/s speed=0.0144x elapsed=0:03:16.48    \nframe=  172 fps=0.9 q=11.1 size=    4096KiB time=00:00:02.83 bitrate=11842.9kbits/s speed=0.0144x elapsed=0:03:16.99    \nframe=  173 fps=0.9 q=8.7 size=    4096KiB time=00:00:02.85 bitrate=11773.6kbits/s speed=0.0144x elapsed=0:03:17.51    \nframe=  174 fps=0.9 q=9.8 size=    4096KiB time=00:00:02.86 bitrate=11705.2kbits/s speed=0.0145x elapsed=0:03:18.04    \nframe=  174 fps=0.9 q=9.8 size=    4096KiB time=00:00:02.86 bitrate=11705.2kbits/s speed=0.0144x elapsed=0:03:18.55    \nframe=  174 fps=0.9 q=9.8 size=    4096KiB time=00:00:02.86 bitrate=11705.2kbits/s speed=0.0144x elapsed=0:03:19.08    \nframe=  176 fps=0.9 q=10.9 size=    4096KiB time=00:00:02.90 bitrate=11570.6kbits/s speed=0.0145x elapsed=0:03:19.61    \nframe=  176 fps=0.9 q=10.9 size=    4096KiB time=00:00:02.90 bitrate=11570.6kbits/s speed=0.0145x elapsed=0:03:20.13    \nframe=  177 fps=0.9 q=7.8 size=    4096KiB time=00:00:02.91 bitrate=11504.5kbits/s speed=0.0145x elapsed=0:03:20.65    \nframe=  178 fps=0.9 q=9.7 size=    4096KiB time=00:00:02.93 bitrate=11439.1kbits/s speed=0.0146x elapsed=0:03:21.17    \nframe=  178 fps=0.9 q=9.7 size=    4096KiB time=00:00:02.93 bitrate=11439.1kbits/s speed=0.0145x elapsed=0:03:21.68    \nframe=  179 fps=0.9 q=11.2 size=    4096KiB time=00:00:02.95 bitrate=11374.5kbits/s speed=0.0146x elapsed=0:03:22.22    \nframe=  180 fps=0.9 q=11.0 size=    4096KiB time=00:00:02.96 bitrate=11310.6kbits/s speed=0.0146x elapsed=0:03:22.74    \nframe=  180 fps=0.9 q=11.0 size=    4096KiB time=00:00:02.96 bitrate=11310.6kbits/s speed=0.0146x elapsed=0:03:23.26    \nframe=  181 fps=0.9 q=8.8 size=    4096KiB time=00:00:02.98 bitrate=11247.4kbits/s speed=0.0146x elapsed=0:03:23.79    \nframe=  181 fps=0.9 q=8.8 size=    4096KiB time=00:00:02.98 bitrate=11247.4kbits/s speed=0.0146x elapsed=0:03:24.35    \nframe=  182 fps=0.9 q=9.2 size=    4096KiB time=00:00:03.00 bitrate=11184.9kbits/s speed=0.0146x elapsed=0:03:24.87    \nframe=  183 fps=0.9 q=11.0 size=    4352KiB time=00:00:03.01 bitrate=11818.3kbits/s speed=0.0147x elapsed=0:03:25.38    \nframe=  184 fps=0.9 q=11.0 size=    4352KiB time=00:00:03.03 bitrate=11753.4kbits/s speed=0.0147x elapsed=0:03:25.90    \nframe=  185 fps=0.9 q=11.1 size=    4352KiB time=00:00:03.05 bitrate=11689.2kbits/s speed=0.0148x elapsed=0:03:26.43    \nframe=  185 fps=0.9 q=11.1 size=    4352KiB time=00:00:03.05 bitrate=11689.2kbits/s speed=0.0147x elapsed=0:03:26.95    \nframe=  185 fps=0.9 q=11.1 size=    4352KiB time=00:00:03.05 bitrate=11689.2kbits/s speed=0.0147x elapsed=0:03:27.48    \nframe=  186 fps=0.9 q=8.1 size=    4352KiB time=00:00:03.06 bitrate=11625.6kbits/s speed=0.0147x elapsed=0:03:28.00    \nframe=  187 fps=0.9 q=10.1 size=    4352KiB time=00:00:03.08 bitrate=11562.8kbits/s speed=0.0148x elapsed=0:03:28.52    \nframe=  189 fps=0.9 q=10.2 size=    4352KiB time=00:00:03.11 bitrate=11439.1kbits/s speed=0.0149x elapsed=0:03:29.04    \nframe=  189 fps=0.9 q=10.2 size=    4352KiB time=00:00:03.11 bitrate=11439.1kbits/s speed=0.0149x elapsed=0:03:29.56    \nframe=  189 fps=0.9 q=10.2 size=    4352KiB time=00:00:03.11 bitrate=11439.1kbits/s speed=0.0148x elapsed=0:03:30.08    \nframe=  190 fps=0.9 q=10.3 size=    4352KiB time=00:00:03.13 bitrate=11378.3kbits/s speed=0.0149x elapsed=0:03:30.60    \nframe=  191 fps=0.9 q=8.0 size=    4352KiB time=00:00:03.15 bitrate=11318.1kbits/s speed=0.0149x elapsed=0:03:31.12    \nframe=  191 fps=0.9 q=8.0 size=    4352KiB time=00:00:03.15 bitrate=11318.1kbits/s speed=0.0149x elapsed=0:03:31.63    \nframe=  192 fps=0.9 q=9.0 size=    4352KiB time=00:00:03.16 bitrate=11258.5kbits/s speed=0.0149x elapsed=0:03:32.15    \nframe=  192 fps=0.9 q=9.0 size=    4352KiB time=00:00:03.16 bitrate=11258.5kbits/s speed=0.0149x elapsed=0:03:32.68    \nframe=  195 fps=0.9 q=10.1 size=    4608KiB time=00:00:03.21 bitrate=11735.5kbits/s speed=0.0151x elapsed=0:03:33.21    \nframe=  197 fps=0.9 q=11.2 size=    4608KiB time=00:00:03.25 bitrate=11615.1kbits/s speed=0.0152x elapsed=0:03:33.73    \nframe=  197 fps=0.9 q=11.2 size=    4608KiB time=00:00:03.25 bitrate=11615.1kbits/s speed=0.0152x elapsed=0:03:34.26    \nframe=  197 fps=0.9 q=11.2 size=    4608KiB time=00:00:03.25 bitrate=11615.1kbits/s speed=0.0151x elapsed=0:03:34.77    \nframe=  197 fps=0.9 q=11.2 size=    4608KiB time=00:00:03.25 bitrate=11615.1kbits/s speed=0.0151x elapsed=0:03:35.31    \nframe=  197 fps=0.9 q=11.2 size=    4608KiB time=00:00:03.25 bitrate=11615.1kbits/s speed=0.0151x elapsed=0:03:35.87    \nframe=  197 fps=0.9 q=11.2 size=    4608KiB time=00:00:03.25 bitrate=11615.1kbits/s speed=0.015x elapsed=0:03:36.42    \nframe=  197 fps=0.9 q=11.2 size=    4608KiB time=00:00:03.25 bitrate=11615.1kbits/s speed=0.015x elapsed=0:03:36.96    \nframe=  197 fps=0.9 q=11.2 size=    4608KiB time=00:00:03.25 bitrate=11615.1kbits/s speed=0.0149x elapsed=0:03:37.51    \nframe=  198 fps=0.9 q=9.1 size=    4608KiB time=00:00:03.26 bitrate=11555.8kbits/s speed=0.015x elapsed=0:03:38.04    \nframe=  198 fps=0.9 q=9.1 size=    4608KiB time=00:00:03.26 bitrate=11555.8kbits/s speed=0.0149x elapsed=0:03:38.61    \nframe=  198 fps=0.9 q=9.1 size=    4608KiB time=00:00:03.26 bitrate=11555.8kbits/s speed=0.0149x elapsed=0:03:39.14    \nframe=  198 fps=0.9 q=9.1 size=    4608KiB time=00:00:03.26 bitrate=11555.8kbits/s speed=0.0149x elapsed=0:03:39.66    \nframe=  198 fps=0.9 q=9.1 size=    4608KiB time=00:00:03.26 bitrate=11555.8kbits/s speed=0.0148x elapsed=0:03:40.18    \nframe=  198 fps=0.9 q=9.1 size=    4608KiB time=00:00:03.26 bitrate=11555.8kbits/s speed=0.0148x elapsed=0:03:40.74    \nframe=  198 fps=0.9 q=9.1 size=    4608KiB time=00:00:03.26 bitrate=11555.8kbits/s speed=0.0148x elapsed=0:03:41.27    \nframe=  199 fps=0.9 q=10.2 size=    4608KiB time=00:00:03.28 bitrate=11497.2kbits/s speed=0.0148x elapsed=0:03:41.80    \nframe=  199 fps=0.9 q=10.2 size=    4608KiB time=00:00:03.28 bitrate=11497.2kbits/s speed=0.0148x elapsed=0:03:42.34    \nframe=  199 fps=0.9 q=10.2 size=    4608KiB time=00:00:03.28 bitrate=11497.2kbits/s speed=0.0147x elapsed=0:03:42.85    \nframe=  201 fps=0.9 q=11.4 size=    4608KiB time=00:00:03.31 bitrate=11381.6kbits/s speed=0.0148x elapsed=0:03:43.36    \nframe=  202 fps=0.9 q=8.7 size=    4608KiB time=00:00:03.33 bitrate=11324.7kbits/s speed=0.0149x elapsed=0:03:43.88    \nframe=  202 fps=0.9 q=8.7 size=    4608KiB time=00:00:03.33 bitrate=11324.7kbits/s speed=0.0149x elapsed=0:03:44.40    \nframe=  202 fps=0.9 q=8.7 size=    4608KiB time=00:00:03.33 bitrate=11324.7kbits/s speed=0.0148x elapsed=0:03:44.91    \nframe=  203 fps=0.9 q=10.2 size=    4608KiB time=00:00:03.35 bitrate=11268.4kbits/s speed=0.0149x elapsed=0:03:45.43    \nframe=  205 fps=0.9 q=11.4 size=    4864KiB time=00:00:03.38 bitrate=11777.2kbits/s speed=0.015x elapsed=0:03:45.95    \nframe=  206 fps=0.9 q=8.9 size=    4864KiB time=00:00:03.40 bitrate=11719.5kbits/s speed=0.015x elapsed=0:03:46.46    \nframe=  207 fps=0.9 q=10.1 size=    4864KiB time=00:00:03.41 bitrate=11662.3kbits/s speed=0.0151x elapsed=0:03:46.98    \nframe=  207 fps=0.9 q=10.1 size=    4864KiB time=00:00:03.41 bitrate=11662.3kbits/s speed=0.015x elapsed=0:03:47.49    \nframe=  209 fps=0.9 q=11.4 size=    4864KiB time=00:00:03.45 bitrate=11549.6kbits/s speed=0.0151x elapsed=0:03:48.02    \nframe=  210 fps=0.9 q=8.7 size=    4864KiB time=00:00:03.46 bitrate=11494.1kbits/s speed=0.0152x elapsed=0:03:48.55    \nframe=  210 fps=0.9 q=8.7 size=    4864KiB time=00:00:03.46 bitrate=11494.1kbits/s speed=0.0151x elapsed=0:03:49.05    \nframe=  210 fps=0.9 q=8.7 size=    4864KiB time=00:00:03.46 bitrate=11494.1kbits/s speed=0.0151x elapsed=0:03:49.57    \nframe=  211 fps=0.9 q=10.0 size=    4864KiB time=00:00:03.48 bitrate=11439.1kbits/s speed=0.0151x elapsed=0:03:50.09    \nframe=  213 fps=0.9 q=11.4 size=    4864KiB time=00:00:03.51 bitrate=11330.7kbits/s speed=0.0153x elapsed=0:03:50.60    \nframe=  214 fps=0.9 q=8.4 size=    5120KiB time=00:00:03.53 bitrate=11870.8kbits/s speed=0.0153x elapsed=0:03:51.12    \nframe=  215 fps=0.9 q=10.3 size=    5120KiB time=00:00:03.55 bitrate=11815.0kbits/s speed=0.0153x elapsed=0:03:51.64    \nframe=  216 fps=0.9 q=11.3 size=    5120KiB time=00:00:03.56 bitrate=11759.8kbits/s speed=0.0154x elapsed=0:03:52.15    \nframe=  218 fps=0.9 q=11.2 size=    5120KiB time=00:00:03.60 bitrate=11650.9kbits/s speed=0.0155x elapsed=0:03:52.67    \nframe=  219 fps=0.9 q=7.7 size=    5120KiB time=00:00:03.61 bitrate=11597.3kbits/s speed=0.0155x elapsed=0:03:53.19    \nframe=  220 fps=0.9 q=10.1 size=    5120KiB time=00:00:03.63 bitrate=11544.1kbits/s speed=0.0155x elapsed=0:03:53.69    \nframe=  220 fps=0.9 q=10.1 size=    5120KiB time=00:00:03.63 bitrate=11544.1kbits/s speed=0.0155x elapsed=0:03:54.21    \nframe=  223 fps=1.0 q=11.0 size=    5120KiB time=00:00:03.68 bitrate=11387.3kbits/s speed=0.0157x elapsed=0:03:54.72    \nframe=  223 fps=0.9 q=11.0 size=    5120KiB time=00:00:03.68 bitrate=11387.3kbits/s speed=0.0157x elapsed=0:03:55.24    \nframe=  224 fps=1.0 q=7.8 size=    5120KiB time=00:00:03.70 bitrate=11336.1kbits/s speed=0.0157x elapsed=0:03:55.76    \nframe=  225 fps=1.0 q=9.0 size=    5376KiB time=00:00:03.71 bitrate=11849.5kbits/s speed=0.0157x elapsed=0:03:56.27    \nframe=  227 fps=1.0 q=10.1 size=    5376KiB time=00:00:03.75 bitrate=11744.1kbits/s speed=0.0158x elapsed=0:03:56.79    \nframe=  228 fps=1.0 q=7.8 size=    5376KiB time=00:00:03.76 bitrate=11692.2kbits/s speed=0.0159x elapsed=0:03:57.30    \nframe=  229 fps=1.0 q=9.0 size=    5376KiB time=00:00:03.78 bitrate=11640.7kbits/s speed=0.0159x elapsed=0:03:57.82    \nframe=  232 fps=1.0 q=8.7 size=    5376KiB time=00:00:03.83 bitrate=11488.8kbits/s speed=0.0161x elapsed=0:03:58.34    \nframe=  233 fps=1.0 q=9.8 size=    5376KiB time=00:00:03.85 bitrate=11439.1kbits/s speed=0.0161x elapsed=0:03:58.85    \nframe=  233 fps=1.0 q=9.8 size=    5376KiB time=00:00:03.85 bitrate=11439.1kbits/s speed=0.0161x elapsed=0:03:59.37    \nframe=  236 fps=1.0 q=11.1 size=    5632KiB time=00:00:03.90 bitrate=11830.2kbits/s speed=0.0163x elapsed=0:03:59.89    \nframe=  237 fps=1.0 q=8.1 size=    5632KiB time=00:00:03.91 bitrate=11779.8kbits/s speed=0.0163x elapsed=0:04:00.40    \nframe=  238 fps=1.0 q=9.2 size=    5632KiB time=00:00:03.93 bitrate=11729.9kbits/s speed=0.0163x elapsed=0:04:00.92    \nframe=  241 fps=1.0 q=10.4 size=    5632KiB time=00:00:03.98 bitrate=11582.7kbits/s speed=0.0165x elapsed=0:04:01.44    \nframe=  241 fps=1.0 q=10.4 size=    5632KiB time=00:00:03.98 bitrate=11582.7kbits/s speed=0.0165x elapsed=0:04:01.94    \nframe=  242 fps=1.0 q=8.1 size=    5632KiB time=00:00:04.00 bitrate=11534.4kbits/s speed=0.0165x elapsed=0:04:02.46    \nframe=  242 fps=1.0 q=8.1 size=    5632KiB time=00:00:04.00 bitrate=11534.4kbits/s speed=0.0165x elapsed=0:04:02.98    \nframe=  244 fps=1.0 q=10.3 size=    5632KiB time=00:00:04.03 bitrate=11439.1kbits/s speed=0.0166x elapsed=0:04:03.53    \nframe=  245 fps=1.0 q=8.3 size=    5632KiB time=00:00:04.05 bitrate=11392.0kbits/s speed=0.0166x elapsed=0:04:04.05    \nframe=  245 fps=1.0 q=8.3 size=    5632KiB time=00:00:04.05 bitrate=11392.0kbits/s speed=0.0166x elapsed=0:04:04.56    \nframe=  245 fps=1.0 q=8.3 size=    5632KiB time=00:00:04.05 bitrate=11392.0kbits/s speed=0.0165x elapsed=0:04:05.09    \nframe=  246 fps=1.0 q=9.5 size=    5888KiB time=00:00:04.06 bitrate=11861.0kbits/s speed=0.0166x elapsed=0:04:05.63    \nframe=  246 fps=1.0 q=9.5 size=    5888KiB time=00:00:04.06 bitrate=11861.0kbits/s speed=0.0165x elapsed=0:04:06.15    \nframe=  247 fps=1.0 q=10.4 size=    5888KiB time=00:00:04.08 bitrate=11812.6kbits/s speed=0.0166x elapsed=0:04:06.68    \nframe=  247 fps=1.0 q=10.4 size=    5888KiB time=00:00:04.08 bitrate=11812.6kbits/s speed=0.0165x elapsed=0:04:07.20    \nframe=  248 fps=1.0 q=10.5 size=    5888KiB time=00:00:04.10 bitrate=11764.6kbits/s speed=0.0165x elapsed=0:04:07.73    \nframe=  248 fps=1.0 q=10.5 size=    5888KiB time=00:00:04.10 bitrate=11764.6kbits/s speed=0.0165x elapsed=0:04:08.26    \nframe=  249 fps=1.0 q=10.5 size=    5888KiB time=00:00:04.11 bitrate=11717.0kbits/s speed=0.0165x elapsed=0:04:08.78    \nframe=  249 fps=1.0 q=10.5 size=    5888KiB time=00:00:04.11 bitrate=11717.0kbits/s speed=0.0165x elapsed=0:04:09.31    \nframe=  249 fps=1.0 q=10.5 size=    5888KiB time=00:00:04.11 bitrate=11717.0kbits/s speed=0.0165x elapsed=0:04:09.83    \nframe=  250 fps=1.0 q=6.0 size=    5888KiB time=00:00:04.13 bitrate=11669.7kbits/s speed=0.0165x elapsed=0:04:10.35    \nframe=  251 fps=1.0 q=11.3 size=    5888KiB time=00:00:04.15 bitrate=11622.9kbits/s speed=0.0165x elapsed=0:04:10.89    \nframe=  251 fps=1.0 q=11.3 size=    5888KiB time=00:00:04.15 bitrate=11622.9kbits/s speed=0.0165x elapsed=0:04:11.43    \nframe=  251 fps=1.0 q=11.3 size=    5888KiB time=00:00:04.15 bitrate=11622.9kbits/s speed=0.0165x elapsed=0:04:11.96    \nframe=  251 fps=1.0 q=11.3 size=    5888KiB time=00:00:04.15 bitrate=11622.9kbits/s speed=0.0164x elapsed=0:04:12.48    \nframe=  252 fps=1.0 q=9.4 size=    5888KiB time=00:00:04.16 bitrate=11576.4kbits/s speed=0.0165x elapsed=0:04:12.99    \nframe=  254 fps=1.0 q=8.5 size=    5888KiB time=00:00:04.20 bitrate=11484.5kbits/s speed=0.0166x elapsed=0:04:13.52    \nframe=  254 fps=1.0 q=8.5 size=    5888KiB time=00:00:04.20 bitrate=11484.5kbits/s speed=0.0165x elapsed=0:04:14.06    \nframe=  254 fps=1.0 q=8.5 size=    5888KiB time=00:00:04.20 bitrate=11484.5kbits/s speed=0.0165x elapsed=0:04:14.57    \nframe=  254 fps=1.0 q=8.5 size=    5888KiB time=00:00:04.20 bitrate=11484.5kbits/s speed=0.0165x elapsed=0:04:15.10    \nframe=  255 fps=1.0 q=10.4 size=    5888KiB time=00:00:04.21 bitrate=11439.1kbits/s speed=0.0165x elapsed=0:04:15.63    \nframe=  257 fps=1.0 q=11.5 size=    6144KiB time=00:00:04.25 bitrate=11842.8kbits/s speed=0.0166x elapsed=0:04:16.16    \nframe=  258 fps=1.0 q=11.6 size=    6144KiB time=00:00:04.26 bitrate=11796.6kbits/s speed=0.0166x elapsed=0:04:16.67    \nframe=  259 fps=1.0 q=8.5 size=    6144KiB time=00:00:04.28 bitrate=11750.7kbits/s speed=0.0167x elapsed=0:04:17.24    \nframe=  259 fps=1.0 q=8.5 size=    6144KiB time=00:00:04.28 bitrate=11750.7kbits/s speed=0.0166x elapsed=0:04:17.77    \nframe=  259 fps=1.0 q=8.5 size=    6144KiB time=00:00:04.28 bitrate=11750.7kbits/s speed=0.0166x elapsed=0:04:18.30    \nframe=  259 fps=1.0 q=8.5 size=    6144KiB time=00:00:04.28 bitrate=11750.7kbits/s speed=0.0165x elapsed=0:04:18.85    \nframe=  260 fps=1.0 q=9.5 size=    6144KiB time=00:00:04.30 bitrate=11705.1kbits/s speed=0.0166x elapsed=0:04:19.39    \nframe=  260 fps=1.0 q=9.5 size=    6144KiB time=00:00:04.30 bitrate=11705.1kbits/s speed=0.0165x elapsed=0:04:19.93    \nframe=  260 fps=1.0 q=9.5 size=    6144KiB time=00:00:04.30 bitrate=11705.1kbits/s speed=0.0165x elapsed=0:04:20.46    \nframe=  260 fps=1.0 q=9.5 size=    6144KiB time=00:00:04.30 bitrate=11705.1kbits/s speed=0.0165x elapsed=0:04:20.99    \nframe=  263 fps=1.0 q=10.7 size=    6144KiB time=00:00:04.35 bitrate=11570.6kbits/s speed=0.0166x elapsed=0:04:21.51    \nframe=  264 fps=1.0 q=7.6 size=    6144KiB time=00:00:04.36 bitrate=11526.4kbits/s speed=0.0167x elapsed=0:04:22.03    \nframe=  264 fps=1.0 q=7.6 size=    6144KiB time=00:00:04.36 bitrate=11526.4kbits/s speed=0.0166x elapsed=0:04:22.54    \nframe=  265 fps=1.0 q=9.5 size=    6144KiB time=00:00:04.36 bitrate=11526.4kbits/s speed=0.0166x elapsed=0:04:23.05    \nframe=  265 fps=1.0 q=9.5 size=    6144KiB time=00:00:04.38 bitrate=11482.6kbits/s speed=0.0166x elapsed=0:04:23.60    \nframe=  265 fps=1.0 q=9.5 size=    6144KiB time=00:00:04.38 bitrate=11482.6kbits/s speed=0.0166x elapsed=0:04:24.15    \nframe=  267 fps=1.0 q=10.7 size=    6400KiB time=00:00:04.41 bitrate=11870.8kbits/s speed=0.0167x elapsed=0:04:24.68    \nframe=  268 fps=1.0 q=8.5 size=    6400KiB time=00:00:04.43 bitrate=11826.1kbits/s speed=0.0167x elapsed=0:04:25.22    \nframe=  268 fps=1.0 q=8.5 size=    6400KiB time=00:00:04.43 bitrate=11826.1kbits/s speed=0.0167x elapsed=0:04:25.74    \nframe=  268 fps=1.0 q=8.5 size=    6400KiB time=00:00:04.43 bitrate=11826.1kbits/s speed=0.0167x elapsed=0:04:26.26    \nframe=  269 fps=1.0 q=9.5 size=    6400KiB time=00:00:04.45 bitrate=11781.8kbits/s speed=0.0167x elapsed=0:04:26.79    \nframe=  269 fps=1.0 q=9.5 size=    6400KiB time=00:00:04.45 bitrate=11781.8kbits/s speed=0.0166x elapsed=0:04:27.31    \nframe=  269 fps=1.0 q=9.5 size=    6400KiB time=00:00:04.45 bitrate=11781.8kbits/s speed=0.0166x elapsed=0:04:27.85    \nframe=  271 fps=1.0 q=10.7 size=    6400KiB time=00:00:04.48 bitrate=11694.2kbits/s speed=0.0167x elapsed=0:04:28.37    \nframe=  272 fps=1.0 q=10.7 size=    6400KiB time=00:00:04.50 bitrate=11650.9kbits/s speed=0.0167x elapsed=0:04:28.89    \nframe=  273 fps=1.0 q=8.4 size=    6400KiB time=00:00:04.51 bitrate=11607.9kbits/s speed=0.0168x elapsed=0:04:29.40    \nframe=  273 fps=1.0 q=8.4 size=    6400KiB time=00:00:04.51 bitrate=11607.9kbits/s speed=0.0167x elapsed=0:04:29.94    \nframe=  273 fps=1.0 q=8.4 size=    6400KiB time=00:00:04.51 bitrate=11607.9kbits/s speed=0.0167x elapsed=0:04:30.47    \nframe=  274 fps=1.0 q=9.5 size=    6400KiB time=00:00:04.53 bitrate=11565.3kbits/s speed=0.0167x elapsed=0:04:30.98    \nframe=  274 fps=1.0 q=9.5 size=    6400KiB time=00:00:04.53 bitrate=11565.3kbits/s speed=0.0167x elapsed=0:04:31.51    \nframe=  274 fps=1.0 q=9.5 size=    6400KiB time=00:00:04.53 bitrate=11565.3kbits/s speed=0.0167x elapsed=0:04:32.04    \nframe=  274 fps=1.0 q=9.5 size=    6400KiB time=00:00:04.53 bitrate=11565.3kbits/s speed=0.0166x elapsed=0:04:32.57    \nframe=  274 fps=1.0 q=9.5 size=    6400KiB time=00:00:04.53 bitrate=11565.3kbits/s speed=0.0166x elapsed=0:04:33.08    \nframe=  274 fps=1.0 q=9.5 size=    6400KiB time=00:00:04.53 bitrate=11565.3kbits/s speed=0.0166x elapsed=0:04:33.63    \nframe=  277 fps=1.0 q=10.6 size=    6656KiB time=00:00:04.58 bitrate=11896.6kbits/s speed=0.0167x elapsed=0:04:34.16    \nframe=  277 fps=1.0 q=10.6 size=    6656KiB time=00:00:04.58 bitrate=11896.6kbits/s speed=0.0167x elapsed=0:04:34.70    \nframe=  277 fps=1.0 q=10.6 size=    6656KiB time=00:00:04.58 bitrate=11896.6kbits/s speed=0.0167x elapsed=0:04:35.22    \nframe=  278 fps=1.0 q=8.2 size=    6656KiB time=00:00:04.60 bitrate=11853.5kbits/s speed=0.0167x elapsed=0:04:35.75    \nframe=  278 fps=1.0 q=8.2 size=    6656KiB time=00:00:04.60 bitrate=11853.5kbits/s speed=0.0167x elapsed=0:04:36.27    \nframe=  278 fps=1.0 q=8.2 size=    6656KiB time=00:00:04.60 bitrate=11853.5kbits/s speed=0.0166x elapsed=0:04:36.85    \nframe=  278 fps=1.0 q=8.2 size=    6656KiB time=00:00:04.60 bitrate=11853.5kbits/s speed=0.0166x elapsed=0:04:37.37    \nframe=  279 fps=1.0 q=9.3 size=    6656KiB time=00:00:04.61 bitrate=11810.8kbits/s speed=0.0166x elapsed=0:04:37.92    \nframe=  279 fps=1.0 q=9.3 size=    6656KiB time=00:00:04.61 bitrate=11810.8kbits/s speed=0.0166x elapsed=0:04:38.45    \nframe=  281 fps=1.0 q=10.6 size=    6656KiB time=00:00:04.65 bitrate=11726.1kbits/s speed=0.0167x elapsed=0:04:38.99    \nframe=  281 fps=1.0 q=10.6 size=    6656KiB time=00:00:04.65 bitrate=11726.1kbits/s speed=0.0166x elapsed=0:04:39.52    \nframe=  282 fps=1.0 q=8.1 size=    6656KiB time=00:00:04.66 bitrate=11684.2kbits/s speed=0.0167x elapsed=0:04:40.04    \nframe=  282 fps=1.0 q=8.1 size=    6656KiB time=00:00:04.66 bitrate=11684.2kbits/s speed=0.0166x elapsed=0:04:40.56    \nframe=  282 fps=1.0 q=8.1 size=    6656KiB time=00:00:04.66 bitrate=11684.2kbits/s speed=0.0166x elapsed=0:04:41.09    \nframe=  283 fps=1.0 q=9.2 size=    6656KiB time=00:00:04.68 bitrate=11642.6kbits/s speed=0.0166x elapsed=0:04:41.60    \nframe=  283 fps=1.0 q=9.2 size=    6656KiB time=00:00:04.68 bitrate=11642.6kbits/s speed=0.0166x elapsed=0:04:42.12    \nframe=  284 fps=1.0 q=10.6 size=    6656KiB time=00:00:04.70 bitrate=11601.3kbits/s speed=0.0166x elapsed=0:04:42.63    \nframe=  286 fps=1.0 q=11.4 size=    6656KiB time=00:00:04.73 bitrate=11519.6kbits/s speed=0.0167x elapsed=0:04:43.16    \nframe=  286 fps=1.0 q=11.4 size=    6656KiB time=00:00:04.73 bitrate=11519.6kbits/s speed=0.0167x elapsed=0:04:43.68    \nframe=  286 fps=1.0 q=11.4 size=    6656KiB time=00:00:04.73 bitrate=11519.6kbits/s speed=0.0167x elapsed=0:04:44.24    \nframe=  286 fps=1.0 q=11.4 size=    6656KiB time=00:00:04.73 bitrate=11519.6kbits/s speed=0.0166x elapsed=0:04:44.78    \nframe=  286 fps=1.0 q=11.4 size=    6656KiB time=00:00:04.73 bitrate=11519.6kbits/s speed=0.0166x elapsed=0:04:45.34    \nframe=  286 fps=1.0 q=11.4 size=    6656KiB time=00:00:04.73 bitrate=11519.6kbits/s speed=0.0166x elapsed=0:04:45.94    \nframe=  287 fps=1.0 q=8.8 size=    6912KiB time=00:00:04.75 bitrate=11920.7kbits/s speed=0.0166x elapsed=0:04:46.47    \nframe=  287 fps=1.0 q=8.8 size=    6912KiB time=00:00:04.75 bitrate=11920.7kbits/s speed=0.0165x elapsed=0:04:47.03    \nframe=  288 fps=1.0 q=10.4 size=    6912KiB time=00:00:04.76 bitrate=11879.0kbits/s speed=0.0166x elapsed=0:04:47.54    \nframe=  288 fps=1.0 q=10.4 size=    6912KiB time=00:00:04.76 bitrate=11879.0kbits/s speed=0.0165x elapsed=0:04:48.07    \nframe=  288 fps=1.0 q=10.4 size=    6912KiB time=00:00:04.76 bitrate=11879.0kbits/s speed=0.0165x elapsed=0:04:48.60    \nframe=  288 fps=1.0 q=10.4 size=    6912KiB time=00:00:04.76 bitrate=11879.0kbits/s speed=0.0165x elapsed=0:04:49.13    \nframe=  291 fps=1.0 q=11.3 size=    6912KiB time=00:00:04.81 bitrate=11755.7kbits/s speed=0.0166x elapsed=0:04:49.72    \nframe=  291 fps=1.0 q=11.3 size=    6912KiB time=00:00:04.81 bitrate=11755.7kbits/s speed=0.0166x elapsed=0:04:50.28    \nframe=  291 fps=1.0 q=11.3 size=    6912KiB time=00:00:04.81 bitrate=11755.7kbits/s speed=0.0166x elapsed=0:04:50.79    \nframe=  292 fps=1.0 q=9.0 size=    6912KiB time=00:00:04.83 bitrate=11715.2kbits/s speed=0.0166x elapsed=0:04:51.31    \nframe=  292 fps=1.0 q=9.0 size=    6912KiB time=00:00:04.83 bitrate=11715.2kbits/s speed=0.0166x elapsed=0:04:51.83    \nframe=  293 fps=1.0 q=10.3 size=    6912KiB time=00:00:04.85 bitrate=11674.9kbits/s speed=0.0166x elapsed=0:04:52.35    \nframe=  294 fps=1.0 q=11.4 size=    6912KiB time=00:00:04.86 bitrate=11635.0kbits/s speed=0.0166x elapsed=0:04:52.91    \nframe=  294 fps=1.0 q=11.4 size=    6912KiB time=00:00:04.86 bitrate=11635.0kbits/s speed=0.0166x elapsed=0:04:53.43    \nframe=  294 fps=1.0 q=11.4 size=    6912KiB time=00:00:04.86 bitrate=11635.0kbits/s speed=0.0166x elapsed=0:04:53.95    \nframe=  295 fps=1.0 q=11.3 size=    6912KiB time=00:00:04.88 bitrate=11595.2kbits/s speed=0.0166x elapsed=0:04:54.47    \nframe=  295 fps=1.0 q=11.3 size=    6912KiB time=00:00:04.88 bitrate=11595.2kbits/s speed=0.0166x elapsed=0:04:54.99    \nframe=  297 fps=1.0 q=8.4 size=    6912KiB time=00:00:04.91 bitrate=11516.6kbits/s speed=0.0166x elapsed=0:04:55.51    \nframe=  298 fps=1.0 q=10.1 size=    6912KiB time=00:00:04.93 bitrate=11477.7kbits/s speed=0.0167x elapsed=0:04:56.02    \nframe=  298 fps=1.0 q=10.1 size=    6912KiB time=00:00:04.93 bitrate=11477.7kbits/s speed=0.0166x elapsed=0:04:56.55    \n[mp4 @ 00000203590d5040] Starting second pass: moving the moov atom to the beginning of the file\n[out#0/mp4 @ 0000020358b64d00] video:7236KiB audio:0KiB subtitle:0KiB other streams:0KiB global headers:2KiB muxing overhead: 0.096158%\nframe=  300 fps=1.0 q=11.2 Lsize=    7243KiB time=00:00:04.96 bitrate=11946.5kbits/s speed=0.0167x elapsed=0:04:57.12    \nx265 [info]: frame I:      2, Avg QP:15.82  kb/s: 8815.68 \nx265 [info]: frame P:     71, Avg QP:8.95  kb/s: 12426.97\nx265 [info]: frame B:    227, Avg QP:10.79  kb/s: 11700.98\nx265 [info]: Weighted P-Frames: Y:12.7% UV:12.7%\n\nencoded 300 frames in 296.69s (1.01 fps), 11853.56 kb/s, Avg QP:10.39\n",
  "seconds": 297.7746698856354,
  "probe_out": {}
}